<?xml version="1.0" standalone="no"?>
<!DOCTYPE svg PUBLIC "-//W3C//DTD SVG 1.1//EN" "http://www.w3.org/Graphics/SVG/1.1/DTD/svg11.dtd" >
<svg xmlns="http://www.w3.org/2000/svg">
<metadata></metadata>
<defs>
<font id="simoneregular" horiz-adv-x="831" >
<font-face units-per-em="2048" ascent="1638" descent="-410" />
<missing-glyph horiz-adv-x="487" />
<glyph horiz-adv-x="0" />
<glyph horiz-adv-x="682" />
<glyph unicode=" "  horiz-adv-x="487" />
<glyph unicode="&#x09;" horiz-adv-x="487" />
<glyph unicode="&#xa0;" horiz-adv-x="487" />
<glyph unicode="!" horiz-adv-x="389" d="M109 45q0 29 19 48.5t48 19.5q47 0 47 -43q0 -25 -20.5 -47.5t-46.5 -22.5q-47 0 -47 45zM197 358q0 45 20.5 125t80.5 230.5t116.5 310.5t56.5 190q0 43 -32.5 55.5t-82.5 12.5l13 33q31 0 64.5 -1t72.5 -1t75.5 2t61.5 8q-45 -152 -113.5 -325t-129 -327.5 t-96.5 -245.5t-87 -194q-8 33 -14 64t-6 63z" />
<glyph unicode="&#x22;" horiz-adv-x="335" d="M313 1034q41 104 84 209l31 82h35q12 0 29.5 2t25.5 2l-29 -57q-14 -20 -52 -114.5t-56 -121.5q-55 0 -68 -2zM475 1034q27 53 65 158.5t50 132.5h35q12 0 29.5 2t25.5 2l-29 -57q-8 -14 -55 -115.5t-53 -120.5q-55 0 -68 -2z" />
<glyph unicode="#" horiz-adv-x="780" d="M-27 0q94 137 166 257t144 263h-164v33h180l117 258h-191v31h205q39 94 79 206.5t40 157.5q0 37 -26.5 47.5t-67.5 10.5v32q39 0 130 4.5t95 4.5q-51 -156 -86 -255.5t-84 -207.5h217q29 70 74 199.5t45 164.5q0 37 -25.5 47.5t-68.5 10.5v32q41 0 132 4.5t95 4.5 q-35 -106 -58.5 -181.5t-50.5 -136.5l-61 -145h139v-31h-153l-62 -131l-63 -127h170v-33h-187q-61 -123 -146 -254t-185 -266h-50q72 109 108 168t202 352h-226q-74 -133 -154.5 -263t-174.5 -257h-54zM373 553h225q35 74 60.5 129t54.5 129h-217q-27 -70 -54.5 -125 t-68.5 -133z" />
<glyph unicode="$" d="M33 211q0 86 40 163t111 158l99 -6l-21 -57l-26 -53q-6 -2 -21 -2q-25 2 -37 2q-45 0 -69.5 -49.5t-24.5 -96.5q0 -98 66.5 -160.5t166.5 -82.5q47 70 87 149.5t135 296.5q-119 109 -154 174.5t-35 138.5q0 182 167 337t285 177.5t153.5 24.5t84.5 2h25q35 0 49 -4 q-16 -53 -52 -135t-67 -154h-34q18 49 27 78t9 59q0 27 -21.5 43.5t-78.5 16.5q-176 0 -315.5 -96.5t-139.5 -264.5q0 -78 38 -136t114 -128q0 2 23.5 60.5t21.5 62.5q6 10 26.5 89t20.5 95q0 37 -23.5 47.5t-66.5 10.5v30l197 7l10 2q-35 -117 -72 -215.5t-92 -223.5l6 -4 q4 -4 11.5 -13t29 -33.5t64.5 -69.5q41 -51 41 -117q0 -158 -148.5 -261.5t-314.5 -103.5l-103 -153h-39l99 153q-111 16 -181.5 75.5t-70.5 166.5zM362 20h33q111 0 210.5 72t99.5 178q0 39 -28 72t-93 98q-68 -139 -114 -230t-108 -190z" />
<glyph unicode="%" horiz-adv-x="1378" d="M356 1034q0 123 117 233.5t240 110.5q86 0 141 -53t55 -141q0 -113 -112.5 -234t-223.5 -121q-88 0 -152.5 58.5t-64.5 146.5zM424 20l829 1326l39 -19l-827 -1327zM424 1092q0 -82 49 -133.5t133 -51.5q94 0 161 67t67 161q0 76 -43 127t-119 51q-96 0 -172 -63.5 t-76 -157.5zM803 178q0 123 115.5 232.5t240.5 109.5q86 0 141.5 -53t55.5 -141q0 -113 -113 -232t-225 -119q-88 0 -151.5 57.5t-63.5 145.5zM868 236q0 -84 50.5 -134.5t132.5 -50.5q96 0 162.5 64.5t66.5 160.5q0 78 -43 129.5t-119 51.5q-96 0 -173 -63.5t-77 -157.5z " />
<glyph unicode="&#x26;" horiz-adv-x="1783" d="M59 299q0 213 187.5 319.5t412.5 106.5h23q76 0 123 3t69.5 12.5t38.5 37.5q-184 0 -314 33t-130 164q0 113 100.5 195.5t198.5 119.5t162.5 47.5t136.5 10.5l76 -7q-14 -25 -53 -129t-46 -135l-30 10q6 18 12 44t6 47q0 47 -23.5 61t-76.5 14q-139 0 -252 -51t-113 -172 q0 -156 160 -192.5t393 -36.5l269 -4h73q203 0 336 45t133 196q0 18 -3 30.5t-7 27.5q61 -21 61 -84q0 -27 -29.5 -71t-91 -107.5t-157.5 -108.5t-221 -45q-45 -102 -82 -164q-39 -57 -66 -96q20 -20 66.5 -59t88.5 -80t105.5 -98.5t98.5 -57.5q29 0 58.5 25.5t59.5 62.5 l23 -20q-63 -68 -126.5 -137.5t-76.5 -82.5q-176 176 -383 361q-162 -154 -359.5 -248t-400.5 -94q-174 0 -302 73.5t-128 233.5zM172 367q0 -152 128 -222.5t294 -70.5q180 0 338 74.5t278 216.5q-84 84 -205.5 150.5t-222.5 66.5q-106 0 -162.5 -66.5t-56.5 -173.5l6 -68 q-27 4 -44 41t-17 64q0 90 96 173t166 96.5t121 13.5q90 0 181 -53.5t210 -147.5q25 31 49 80t51 139l-102 4q-86 0 -229.5 5t-171.5 5q-297 0 -502 -56t-205 -271z" />
<glyph unicode="'" horiz-adv-x="180" d="M305 1034q41 104 84 209l31 82h35q12 0 29.5 2t25.5 2l-29 -57q-14 -20 -52 -114.5t-56 -121.5q-55 0 -68 -2z" />
<glyph unicode="(" horiz-adv-x="483" d="M139 342q0 367 203 696.5t535 446.5l4 -21q-84 -37 -143.5 -73.5t-177.5 -148.5t-211 -399.5t-93 -566.5q0 -104 14.5 -204.5t40.5 -204.5q-96 68 -134 197t-38 278z" />
<glyph unicode=")" horiz-adv-x="481" d="M-61 -113q291 170 440 521.5t149 732.5q0 104 -11 176t-48 158l-2 6q100 -47 137 -173t37 -276q0 -342 -197.5 -684t-496.5 -481z" />
<glyph unicode="*" horiz-adv-x="874" d="M436 1186l56 84l4 -4l10 -6q31 -29 60.5 -51.5t51.5 -39.5l7 -4l90 -63q4 14 28.5 131t24.5 131l2 10l98 -28l-55 -150l-2 -4l-31 -100h8q37 0 131.5 16t122.5 14l5 -102l-99 6h-176l4 -6q6 -8 56.5 -126t56.5 -122l-96 -37l-33 125l-45 137q-102 -94 -203 -186l-61 78 q57 37 112 74.5t113 85.5l-8 6q-57 35 -116.5 68.5t-115.5 62.5z" />
<glyph unicode="+" d="M174 551l23 57h309l121 312h53l-117 -312h309l-22 -57h-309l-119 -307h-55l118 307h-311z" />
<glyph unicode="," horiz-adv-x="325" d="M-98 -266q51 113 69.5 163t18.5 107l106 131l2 -31q0 -96 -56 -197.5t-140 -172.5z" />
<glyph unicode="-" horiz-adv-x="294" d="M-2 332l63 129h138q37 2 53 2h31q18 0 36.5 6t28.5 10l23 10l-11 -20q-14 -31 -45.5 -60.5t-60.5 -27.5q-16 -8 -43 -8q-14 0 -49 4t-53 4q-59 0 -82 -31l-11 -18h-18z" />
<glyph unicode="." horiz-adv-x="325" d="M0 45q0 29 19.5 48.5t48.5 19.5q45 0 45 -43q0 -27 -19.5 -48.5t-46.5 -21.5q-47 0 -47 45z" />
<glyph unicode="/" horiz-adv-x="647" d="M-84 -139l1071 1630h43l-1071 -1630h-43z" />
<glyph unicode="0" d="M139 301q0 88 15.5 177t66.5 255t212 381t362 215q111 0 155.5 -75.5t44.5 -196.5q0 -76 -8 -146.5t-41 -187.5t-111.5 -289t-202.5 -307t-267 -135q-117 0 -171.5 92t-54.5 217zM238 412q0 -131 35.5 -216t148.5 -85q215 0 341 308t126 564q0 117 -38 183.5t-146 66.5 q-96 0 -174 -77t-145 -195.5t-107.5 -263t-40.5 -285.5z" />
<glyph unicode="1" d="M195 -6q90 135 180 338t145 367.5t81 236.5t37 96.5t25.5 70.5t14.5 58q0 33 -31 33q-25 0 -66.5 -9t-78.5 -18l-8 29q25 4 82 18.5t70 19.5t98 24.5t122 44.5l-45 -117q-109 -287 -225.5 -593t-233.5 -540q-41 -20 -71.5 -33.5t-57.5 -19.5z" />
<glyph unicode="2" d="M-109 0l46 84q244 121 500.5 359.5t330.5 374.5t90 180t16 83q0 88 -62 140.5t-153 52.5q-113 0 -182 -82t-86 -203q-59 25 -59 96q0 113 152.5 175.5t285.5 62.5q104 0 167.5 -59.5t63.5 -165.5q0 -129 -164.5 -322.5t-349 -353.5t-397.5 -330h424h29q51 0 81.5 11.5 t59.5 52.5l43 63h51q-43 -66 -72.5 -117t-46.5 -102h-768z" />
<glyph unicode="3" d="M20 174q0 14 6.5 38t10.5 38q25 -86 116 -124t195 -38q160 0 275.5 92t115.5 246q0 123 -102 174t-248 51q-53 0 -96 -6q14 20 50 77.5t46 76.5l53 -4q158 0 299.5 81.5t141.5 227.5q0 68 -49.5 104.5t-120.5 36.5q-106 0 -180 -71.5t-95 -180.5q-45 29 -45 76 q0 106 156 168.5t282 62.5q82 0 131.5 -39.5t49.5 -119.5q0 -141 -122 -233.5t-278 -123.5l-63 -18q-25 -10 -42.5 -34.5t-35.5 -57.5q150 -14 236 -72.5t86 -193.5q0 -182 -146.5 -303t-335.5 -121q-113 0 -202 44t-89 146z" />
<glyph unicode="4" d="M59 442q14 12 33 47t31 64q88 31 166 104.5t187.5 265t109.5 300.5q0 31 -23.5 40t-58.5 9l-2 33l55 -2q41 0 84 2l86 4q0 -90 -39 -170t-95 -177.5t-151.5 -205t-218.5 -207.5l37 -2q74 0 147.5 -2t149.5 -4q109 289 146.5 363.5t133 125.5t130 65.5t53.5 14.5 q31 0 31 -45l-2 -16q-6 4 -31 6t-33 2q-45 0 -89 -26.5t-94 -130t-140 -363.5q6 -2 17 -2h15q88 0 145.5 33.5t73.5 113.5q8 -4 22.5 -11t14.5 -26q0 -59 -116.5 -119.5t-206.5 -83.5l-156 -424q-59 0 -113 -18l162 442l-201 4h-133z" />
<glyph unicode="5" d="M66 127q0 55 22 96q14 -84 81 -122t161 -38q119 0 200.5 74t81.5 189q0 31 -25.5 70.5t-27.5 52.5q-53 59 -109.5 128.5t-56.5 133.5q0 20 13.5 63t23.5 55q16 41 78.5 196t109.5 269q61 0 158.5 5.5t114.5 5.5h129q51 0 76 -2q-12 -12 -30.5 -54.5t-29.5 -50.5l-10 -18 h-408q-39 -84 -89 -195t-50 -158q0 -76 114 -203.5t114 -222.5q0 -106 -93.5 -223t-181.5 -155.5t-164 -38.5t-139 35.5t-63 107.5z" />
<glyph unicode="6" d="M86 236q0 256 209 496.5t392 351t294 158.5t184 48q14 0 26.5 -4t35.5 -16q-307 -66 -520 -217.5t-320.5 -331.5t-147.5 -282.5t-40 -180.5q0 -86 50 -144.5t136 -58.5q131 0 219 124t88 261q0 74 -35.5 125t-107.5 51q-92 0 -153.5 -83.5t-106.5 -200.5q-10 29 -10 65 q0 102 109.5 187.5t217.5 85.5q94 0 148.5 -47.5t54.5 -141.5q0 -176 -166 -337.5t-344 -161.5q-100 0 -156.5 73.5t-56.5 180.5z" />
<glyph unicode="7" d="M123 74q0 37 16.5 88t64.5 153.5t231 248t353 278.5q182 166 236 348h-397q-133 0 -154.5 -16.5t-73.5 -139.5h-32q35 104 52 159.5t32 113.5h657q-45 -141 -109.5 -265t-134 -205t-276.5 -258.5t-316.5 -289t-109.5 -189.5q0 -37 32.5 -54t71.5 -17q-20 -45 -67 -45 q-33 0 -54.5 27.5t-21.5 62.5z" />
<glyph unicode="8" d="M82 236q0 168 113.5 285.5t287.5 158.5q-96 119 -96 270q0 145 131 258t279 113q96 0 154.5 -52.5t58.5 -148.5q0 -143 -98.5 -243.5t-243.5 -100.5q-78 0 -78 78q51 -41 102 -41q92 0 147.5 90t55.5 187q0 78 -50 121.5t-130 43.5q-102 0 -168 -71.5t-66 -173.5 q0 -125 145.5 -307.5t145.5 -296.5q0 -94 -44 -178.5t-161.5 -164t-224.5 -79.5q-111 0 -185.5 70.5t-74.5 181.5zM197 274q0 -100 56 -160.5t155 -60.5q117 0 187.5 79t70.5 198q0 74 -51.5 175t-110.5 146q-135 -39 -221 -139t-86 -238z" />
<glyph unicode="9" d="M-8 4q295 66 508 252t275.5 363.5t75.5 243t13 130.5q0 98 -52 165t-150 67q-121 0 -193 -101.5t-72 -228.5q0 -84 41 -143.5t121 -59.5q109 0 161 100.5t52 219.5q23 -14 31 -34t8 -48q0 -102 -108.5 -207t-210.5 -105q-96 0 -144.5 62.5t-48.5 163.5q0 156 145.5 307.5 t303.5 151.5q121 0 174 -78t53 -207q0 -115 -53.5 -275.5t-250 -368.5t-327.5 -277.5t-190.5 -91t-108.5 -21.5q-25 0 -33 6z" />
<glyph unicode=":" horiz-adv-x="325" d="M4 47q0 29 19.5 48.5t48.5 19.5q45 0 45 -43q0 -27 -19.5 -48.5t-46.5 -21.5q-47 0 -47 45zM98 289q0 29 18.5 49t49.5 20q47 0 47 -45q0 -27 -20.5 -47t-47.5 -20q-18 0 -32.5 12t-14.5 31z" />
<glyph unicode=";" horiz-adv-x="325" d="M-100 -266q51 113 69.5 163t18.5 107l106 131l2 -31q0 -96 -56 -197.5t-140 -172.5zM82 289q0 29 18.5 49t46.5 20q48 0 48 -45q0 -27 -20.5 -47t-47.5 -20q-18 0 -31.5 13t-13.5 30z" />
<glyph unicode="&#x3c;" horiz-adv-x="976" d="M90 682v12l836 539v-66l-652 -426l652 -436v-180z" />
<glyph unicode="=" d="M145 418l23 55h676l-21 -55h-678zM242 686l22 57h676l-22 -57h-676z" />
<glyph unicode="&#x3e;" horiz-adv-x="976" d="M90 125v70l651 426l-651 434v178l836 -555v-12z" />
<glyph unicode="?" horiz-adv-x="688" d="M147 45q0 29 19.5 48.5t48.5 19.5q47 0 47 -43q0 -25 -20.5 -47.5t-46.5 -22.5q-47 0 -48 45zM174 305q0 25 9.5 54.5t45 103.5t117.5 119t233.5 91t224.5 122.5t73 199.5q0 119 -83 167t-212 48q-119 0 -165 -29.5t-100 -136.5h-34q31 68 51 123.5t39 124.5 q68 20 129 32.5t116 12.5q137 0 227.5 -61.5t90.5 -194.5q0 -63 -16.5 -119.5t-63.5 -151.5t-125 -152.5t-153 -94.5q-106 -43 -211 -86q-152 -72 -152 -137q0 -33 28.5 -48.5t63.5 -15.5l6 3q-8 -25 -25.5 -40.5t-41.5 -15.5q-33 0 -52.5 25.5t-19.5 56.5z" />
<glyph unicode="@" horiz-adv-x="1329" d="M176 360q0 221 79 415t228.5 359.5t326.5 256t382 90.5q158 0 261 -80t103 -232q0 -213 -102 -402t-216 -252.5t-164 -82t-91 -18.5q-66 0 -95.5 43t-29.5 110q0 29 2 43q-74 -74 -152.5 -131t-142.5 -57q-31 0 -46 23.5t-15 54.5q0 207 241.5 389t456.5 182q45 0 45 -27 q0 -18 -6 -32.5t-22 -40.5q-29 2 -53.5 5t-59.5 3q-135 0 -249 -69.5t-164 -150.5t-64.5 -119t-14.5 -79q0 -53 35 -53q10 0 20.5 5t71 49t132 163t92.5 231q23 -6 41 -32.5t18 -51.5q0 -27 -14.5 -59.5t-38.5 -77.5q12 6 41.5 15.5t42.5 15.5q-18 -33 -46 -95.5t-28 -82.5 q0 -35 29.5 -58.5t66.5 -23.5q119 0 220.5 114.5t128 206t32.5 146.5t6 112q0 156 -97 249t-255 93q-346 0 -589.5 -331.5t-243.5 -692.5q0 -168 102 -262t270 -94q238 0 387 162l13 -12q-104 -123 -207 -185.5t-246 -62.5q-199 0 -310.5 107.5t-111.5 303.5z" />
<glyph unicode="A" horiz-adv-x="1603" d="M-145 39l59 98q207 72 405.5 233.5t343 325.5t288 346.5t216 272.5t146.5 153l26 -24q-45 -53 -56 -92t-11 -117q0 -143 27.5 -310t111.5 -462t148 -295q12 0 36.5 23.5t30.5 29.5l27 -24q-27 -29 -54.5 -57.5t-29.5 -35.5q-4 -2 -45 -51t-60 -69q-127 279 -210 559 t-83 522q0 49 6.5 106.5t8.5 90.5q-72 -70 -148.5 -167.5t-157.5 -199.5t-143 -166l451 -4q-23 -51 -42.5 -129t-29.5 -117h-37q14 41 15 86q0 43 -31 52.5t-88 9.5h-207l-129 -6q-49 -47 -96 -95l-17 -16q-115 -113 -221 -201t-227 -164q39 0 81 2.5t85 4.5q63 0 123.5 -1 t153.5 -12.5t172 -20.5t138 -9q317 0 361 313q35 -23 35 -57q0 -92 -103.5 -188.5t-201 -136.5t-193.5 -40q-100 0 -324.5 21.5t-312.5 21.5l-225 -4h-12z" />
<glyph unicode="B" horiz-adv-x="2416" d="M160 545q0 225 159.5 380.5t387.5 155.5q168 0 307 -106q35 -31 71 -62l5 -6l6 -4q4 -10 100 -119.5t101.5 -118t75 -88t122.5 -139.5q4 2 43 41l41 41q-143 96 -143 264q0 100 106 101q-29 -31 -47 -64t-18 -67q0 -74 56 -102.5t138 -28.5q29 27 163 195.5t140 187.5 q16 27 33.5 51t34.5 43l35 -13q-18 -31 -19 -77q0 -68 56.5 -130.5t123.5 -62.5q70 0 114 63.5t44 137.5q0 135 -94 192.5t-240 57.5q-125 0 -211 -8.5t-363.5 -41t-337.5 -38.5t-134 -6q-51 0 -83 5t-65 25q4 16 28 100.5t36 133.5l37 -8q-4 -25 -7.5 -41.5t-3.5 -26.5 q0 -45 43 -56.5t103 -11.5q76 0 156.5 10.5t203.5 27t299 37t324 20.5q164 0 273.5 -71.5t109.5 -225.5q0 -117 -56.5 -200t-113.5 -108.5t-100 -42t-58 -16.5q-35 0 -85 57.5t-103 132.5l-15 -18l-45 -61l-143 -179q-4 -6 -13 -16t-14 -14q29 6 51.5 10t32.5 4 q74 27 170.5 46.5t165.5 19.5q135 0 228.5 -73t93.5 -206q0 -182 -152.5 -309t-341.5 -127q-199 0 -311.5 100.5t-230.5 233.5q-174 -154 -342 -245t-351 -91q-246 0 -411.5 155.5t-165.5 399.5zM225 582q0 -223 179.5 -373t408.5 -150q158 0 302.5 80t289.5 215l-4 8l-8 5 l-146 176q-117 143 -196.5 232t-196.5 165t-231 76q-178 0 -288 -126t-110 -308zM1526 412q33 -45 77 -87t107.5 -106.5t148.5 -115t189 -50.5q137 0 245.5 96.5t108.5 231.5q0 104 -67.5 159.5t-175.5 55.5q-59 0 -241.5 -45t-250.5 -45q-29 0 -47 6z" />
<glyph unicode="C" horiz-adv-x="1492" d="M131 401q0 123 38 242t153.5 303t394 319.5t598.5 135.5q188 0 326.5 -72t138.5 -242q0 -182 -164 -290.5t-356 -108.5q-113 0 -378.5 62.5t-367.5 62.5q-25 0 -49.5 -6t-46.5 -16q27 27 54.5 61.5t53.5 69.5l66 4q37 0 103.5 -9.5t95 -14.5t108.5 -27.5t162 -44t168 -39 t160 -17.5q127 0 224 70.5t97 191.5q0 164 -162 237t-346 73q-379 0 -672.5 -252t-293.5 -627q0 -172 102 -276.5t278 -104.5q199 0 307.5 161t108.5 369l-2 33q31 -16 41 -42.5t10 -69.5q0 -186 -177 -369.5t-365 -183.5q-180 0 -294 117.5t-114 299.5z" />
<glyph unicode="D" horiz-adv-x="2160" d="M201 694q0 156 115.5 258.5t273.5 102.5q145 0 235 -119t140.5 -207t87.5 -151l321 127q113 45 187.5 75.5t131 57t102.5 47t108.5 49.5t152.5 72l4 -9v-18q0 -74 -68.5 -255t-68.5 -230q0 -31 37 -31q16 0 53 12l10 -35l-241 -82q0 78 70.5 267.5t70.5 218.5 q0 37 -31 37l-22 -4q-55 -14 -165 -65.5t-251 -114t-383 -150.5q80 -137 154.5 -235.5t176 -165t228.5 -66.5q268 0 450.5 231.5t182.5 507.5q0 227 -154.5 325.5t-396.5 98.5q-131 0 -385 -25.5t-362 -25.5q-76 0 -119 8q-43 12 -72 19q4 16 15.5 55t11.5 49l4 8 q-2 10 11 63.5t13 55.5v10l37 -6v-10q0 -14 -5 -40t-5 -30q0 -31 43 -41t102 -10h29q121 0 351.5 21.5t332.5 21.5q274 0 454.5 -111.5t180.5 -369.5q0 -319 -233.5 -599t-548.5 -280q-160 0 -263.5 66.5t-187.5 189.5t-160 244q-117 -39 -235.5 -68.5t-200.5 -29.5 q-137 0 -228 75.5t-91 210.5zM250 733q0 -125 93 -198.5t222 -73.5q84 0 182.5 21.5t188.5 56.5q-133 223 -221 328.5t-230 105.5q-96 0 -165.5 -72t-69.5 -168z" />
<glyph unicode="E" horiz-adv-x="2248" d="M182 532q0 190 106.5 336t305.5 277t383 164.5t514 33.5l350 3q61 0 156.5 3t97.5 3l-27 -76q0 -4 -20 -79t-20 -81l-7 -14h-36q6 23 11 47.5t5 42.5q0 35 -20.5 46t-55.5 11h-39h-254q-23 -90 -46 -179t-38 -114q-63 -158 -177 -248t-292 -145q104 -33 187.5 -81 t230.5 -146q29 -14 45.5 -23.5t22.5 -17.5q51 61 76.5 126.5t25.5 139.5q0 98 -41 171t-127 110h348l-28 -107h-164q88 -88 88 -211q0 -70 -31 -138.5t-82 -127.5q150 -84 210.5 -112.5t137.5 -28.5q141 0 232.5 97t91.5 239q20 -12 29.5 -32.5t9.5 -49.5q0 -90 -89 -165 t-147.5 -111t-107.5 -64.5t-58 -28.5q-59 0 -164.5 47t-155.5 75t-87 50q-119 -86 -288 -127t-339 -41q-297 0 -510 126t-213 400zM293 569q0 -121 70.5 -256t220 -200.5t352.5 -65.5q156 0 287 38t254 124q-141 92 -258 157.5t-247 108.5t-265 43q-20 0 -44 -4t-51 -10 q25 25 45.5 53.5t30.5 58.5q8 4 34 5.5t34 1.5q35 0 118.5 -11.5t108.5 -11.5q170 0 277.5 93t167 234.5t100.5 321.5h-273q-94 0 -154.5 -3t-235.5 -24.5t-373.5 -200.5t-198.5 -452z" />
<glyph unicode="F" horiz-adv-x="2179" d="M4 152q0 254 160 399t416 145q186 0 351 -85t279.5 -187t331.5 -320q23 33 36 83.5t13 95.5q0 164 -141 255t-313 91q12 29 21 49t18 47h700q61 221 128 337t184.5 195.5t179 108.5t129.5 29l51 -6v-9q0 -29 -23.5 -105.5t-42.5 -137.5h-35q8 29 12.5 47t4.5 33 q0 71 -72 71h-2q-41 0 -78 -10t-108.5 -61.5t-105.5 -131t-83 -251.5l-26 -89q-4 -14 -7 -20h379l-71 -238h-35q4 14 10 39t6 39q0 35 -28.5 47.5t-77.5 12.5q-45 -2 -60 -2h-153q-35 -123 -72 -222.5t-141.5 -305.5t-388 -410.5t-609.5 -204.5q-313 0 -525 182t-212 490z M53 209q0 -303 232.5 -475t543.5 -172q420 0 667 301t351 760h-452q106 -45 170.5 -131t64.5 -197q0 -63 -22.5 -140t-91.5 -204q-141 166 -308.5 320.5t-353.5 260t-367 105.5q-188 0 -311 -119t-123 -309z" />
<glyph unicode="G" horiz-adv-x="2074" d="M39 227q0 248 145.5 406t393.5 158q150 0 257 -58.5t167.5 -131.5t83 -98.5t73.5 -109.5t149.5 -236.5t129.5 -172.5l32 -9q20 0 40 7.5t49 21.5l14 -33l-10 -2q-59 -25 -119 -51l-86 -41l-41 57q-6 16 -19.5 34t-25.5 32q-23 35 -122 197.5t-180 267t-196 186.5t-262 82 q-184 0 -293.5 -119.5t-109.5 -306.5q0 -328 235.5 -536.5t568.5 -208.5q375 0 637 246.5t372 529.5t136.5 390.5t26.5 186.5h-182q29 -29 39 -51t10 -63q0 -164 -182.5 -307.5t-352.5 -143.5q-143 0 -231 88t-88 232q0 311 257 520t576 209h13l86 -6l-68 -234h-35 q4 25 7 41.5t3 28.5q0 55 -43 68.5t-110 13.5q-250 0 -411 -165t-161 -417q0 -131 76 -215t207 -84q141 0 246.5 97.5t105.5 236.5q0 106 -112 141l-11 4q-23 0 -51 2t-55 4v37h606q-66 -311 -192.5 -581.5t-321 -474t-414 -309t-473.5 -105.5q-336 0 -560 206t-224 539z " />
<glyph unicode="H" horiz-adv-x="2787" d="M174 563q0 217 146.5 353.5t365.5 136.5q213 0 415 -139.5t349 -338.5q18 55 18 119q0 219 -206 252l14 33l29 74q94 -16 249.5 -35t249.5 -27q12 33 34 130.5t22 123.5q0 37 -35 37q-23 0 -41.5 -6t-44.5 -21l-13 33q61 23 102.5 39t80.5 39l90 37 q-12 -109 -34.5 -215.5t-55.5 -206.5l180 -16q43 94 93 166.5t147.5 159.5t259 157t323.5 70q106 0 186 -40.5t80 -136.5q0 -70 -38.5 -138t-134 -164.5t-270.5 -146.5t-398 -50q-47 0 -123 3t-78 3q-27 -102 -43 -190.5t-16 -174.5q0 -182 83 -282.5t263 -100.5 q190 0 307 119t117 311q16 -23 26.5 -39t10.5 -47q0 -45 -21.5 -94t-80 -136t-164 -150.5t-246.5 -63.5q-193 0 -304.5 113.5t-111.5 310.5q0 109 22.5 209t67.5 221l-176 16q-129 -352 -429 -612t-653 -260q-252 0 -433 158.5t-181 406.5zM240 637q0 -254 187 -400.5 t450 -146.5q346 0 554.5 213t337.5 578l-335 37q43 -43 58 -89.5t15 -113.5q0 -78 -20.5 -168t-32.5 -150q-121 154 -249 284t-282.5 221t-312.5 91q-156 0 -263 -101t-107 -255zM2177 956q23 -4 63.5 -6t67.5 -2h102q215 0 378 35t222.5 109.5t74 106.5t14.5 67 q0 104 -85 147t-202 43q-137 0 -267 -66.5t-191.5 -141t-87 -119t-89.5 -173.5z" />
<glyph unicode="I" horiz-adv-x="1808" d="M178 594q0 203 134 329t339 126q195 0 383 -123q94 51 205 51q160 0 230.5 -106.5t70.5 -272.5q0 -53 -29.5 -125t-68.5 -141q-129 168 -232.5 278.5t-251.5 223.5q-72 -68 -103.5 -148t-31.5 -184q0 -90 25 -180q-41 29 -65.5 80t-24.5 102q0 100 45 187t125 163 q-90 68 -169 102.5t-177 34.5q-152 0 -251.5 -101.5t-99.5 -254.5q0 -262 222.5 -400.5t500.5 -138.5q309 0 523.5 160t345.5 405.5t229 567.5h-766q-88 0 -130 -16.5t-71 -86.5l-36 9l24 59q39 82 64 158h1026q-94 -297 -203 -526.5t-275.5 -425t-333.5 -271.5 t-274.5 -101.5t-214.5 -25.5q-283 0 -483.5 157.5t-200.5 434.5zM1069 901q106 -78 204.5 -183.5t199.5 -234.5q16 53 21 80t5 60q0 125 -84 217t-209 92q-47 0 -68.5 -6t-68.5 -25z" />
<glyph unicode="J" horiz-adv-x="1820" d="M-35 78q0 242 181.5 384t431.5 142q227 0 450 -92t455 -248l-111 -74q-178 131 -432 231.5t-455 100.5q-188 0 -327.5 -102.5t-139.5 -286.5q0 -66 19.5 -129t83 -167.5t233.5 -180.5t359 -76q283 0 502 164t364 409.5t203.5 425t79 278.5t43 201.5t37.5 203.5 q-18 -4 -50 -5.5t-51 -1.5h-82q-96 0 -162.5 -51t-66.5 -147q0 -102 113.5 -216t113.5 -175q0 -74 -58.5 -162t-129.5 -88q-55 0 -84 41t-29 98l2 12q25 -35 59.5 -62.5t67.5 -27.5q53 0 73.5 32t20.5 87q0 25 -108.5 137.5t-108.5 241.5q0 158 113 270.5t272 112.5h43h119 q48 0 64 -2q-61 -262 -123 -525q-90 -297 -275.5 -608t-446.5 -525t-558 -214q-281 0 -493 160.5t-212 433.5z" />
<glyph unicode="K" horiz-adv-x="2424" d="M223 668q0 262 181.5 415.5t447.5 153.5q203 0 367.5 -93t336.5 -265q0 4 15.5 58t27.5 75l5 14q12 53 23 112.5t11 73.5q0 33 -34 33q-25 0 -58 -13t-47 -20l-16 33l69 31q82 45 152 82t100 49q-41 -178 -81 -310t-103 -276l174 -172q147 143 312 304t182 190 q4 2 39.5 42t46.5 52l-123 2h-64q-88 0 -114.5 -22.5t-63.5 -131.5h-43l86 273q43 0 184.5 -4t165.5 -4h25h94q33 6 45 8l-268 -268q-207 -195 -336 -321t-141 -144l389 -381q45 -43 83 -72t66 -29q20 0 43 16.5t82 76.5l25 -25l-19 -18q-10 -12 -21 -23.5t-40 -37.5 t-79 -73t-62 -63l-148 135l-409 408q-100 -102 -212 -211t-212 -172l-11 -13q-82 -63 -205.5 -99t-238.5 -36q-276 0 -452.5 190.5t-176.5 469.5zM270 688q0 -252 202 -420t458 -168q160 0 285.5 61.5t223 147.5t267.5 256l-147 144q-76 -141 -200 -252t-257 -111 q-63 0 -115.5 28.5t-52.5 86.5q0 39 24 78q8 -68 56.5 -102t120.5 -34q129 0 224 104.5t152 248.5q-131 127 -236.5 216t-230 147.5t-266.5 58.5q-219 0 -363.5 -135.5t-144.5 -354.5z" />
<glyph unicode="L" horiz-adv-x="1771" d="M137 340q0 203 127 342t320 139q39 0 82 -6q135 172 260 299t284.5 216t335.5 89q141 0 229.5 -63.5t88.5 -200.5q0 -209 -201 -371.5t-418 -162.5q-125 0 -271.5 23.5t-283.5 47.5q-35 4 -69 10q-53 -66 -105.5 -129t-112.5 -127q43 27 94.5 37.5t108.5 10.5 q129 0 277.5 -58.5t203.5 -81.5l373 -151q55 -25 122 -48.5t93 -23.5q31 0 54.5 15.5t60.5 50.5l25 -27q-59 -57 -95.5 -93t-77.5 -83l-6 4h-1q-13 0 -117 40q-108 42 -228 91q-4 6 -178 78t-304 122t-168 63.5t-77 22.5t-74 9q-74 0 -116.5 -34t-132.5 -126l-21 31 q84 86 190.5 208t165.5 204q-8 4 -21 4h-19q-164 0 -260.5 -90.5t-96.5 -251.5q0 -145 114 -235.5t263 -90.5q70 0 124 19.5t130 62.5l20 -29q-76 -49 -165 -80.5t-175 -31.5q-160 0 -256 98t-96 258zM711 811h3q24 -1 156 -23q144 -24 308 -51q74 -8 99.5 -9t55.5 -1 q166 0 311.5 97t145.5 257q0 135 -88 207t-225 72q-141 0 -284.5 -86t-257.5 -201t-224 -262z" />
<glyph unicode="M" horiz-adv-x="2643" d="M178 567q0 242 166 381t412 139q180 0 356 -104q166 -113 332 -225q31 0 57.5 12t79.5 41l21 -31l-250 -137q-168 160 -345.5 266.5t-353.5 106.5q-182 0 -295.5 -107.5t-113.5 -292.5q0 -242 178 -377t428 -135q268 0 494.5 169t410.5 432q-4 29 -10 80t-6 77 q0 141 48 302t105.5 203t81.5 42q47 0 64.5 -40t17.5 -95q0 -104 -59.5 -230t-145.5 -264l17 -69q29 -117 42 -170.5t26.5 -136t29.5 -181.5q18 20 50 59.5t48 59.5l461 573q205 254 315.5 356.5t294.5 102.5l-77 -262l-35 6q2 10 7 29.5t5 28.5q0 31 -23.5 42t-60.5 11 q-63 0 -114.5 -32t-123 -118t-108.5 -216t-68.5 -298t-47 -252t-15.5 -149q0 -51 45 -51q23 0 42 6t50 22l19 -30l-19 -9l-282 -110q0 145 44 372.5t97 426.5q-88 -106 -205 -254t-180 -228l-197 -243q-23 -27 -45 -54l-26 17q18 37 27 66.5t9 66.5q0 82 -30.5 243.5 t-57.5 247.5q-133 -176 -281.5 -319.5t-325.5 -236.5t-372 -93q-256 0 -432 155.5t-176 407.5zM1827 995q0 -29 7 -86t9 -67q57 102 95 199.5t38 187.5q0 33 -12 55.5t-41 22.5q-43 0 -69.5 -89.5t-26.5 -222.5z" />
<glyph unicode="N" horiz-adv-x="2367" d="M139 473q0 219 143.5 345t364.5 126q154 0 295 -74q133 -82 266 -161q23 0 65 25.5t44 27.5l18 -31l-65 -43q-35 -14 -76 -45t-66 -49q-125 127 -268 203.5t-303 76.5q-156 0 -259 -93t-103 -246q0 -209 156.5 -332t371.5 -123q285 0 462 228.5t255 547.5 q-59 49 -171 154.5t-122 130.5q-16 8 -63.5 78.5t-47.5 91.5q0 23 39 102.5t66 128.5l35 -12q-12 -25 -24.5 -59.5t-12.5 -57.5q0 -59 126 -197.5t216 -211.5q16 74 45.5 117.5t93.5 76.5l-76 -254q109 -86 208 -162.5t208 -156.5q72 240 158 399.5t236.5 262t377.5 102.5 q41 0 74 -5.5t82 -17.5l-76 -260l-35 6q4 23 8 46.5t4 41.5q0 43 -39.5 61.5t-140.5 18.5q-260 0 -402.5 -196.5t-199.5 -489.5l195 -143q27 -47 39 -73t12 -69q0 -84 -56.5 -193.5t-132.5 -109.5q-82 0 -117.5 83t-35.5 177q0 55 5 104.5t17 118.5q-221 152 -430 318 q-43 -129 -65.5 -188.5t-105.5 -198.5t-274.5 -280.5t-412.5 -141.5q-219 0 -362.5 129t-143.5 346zM1972 338q0 -92 21.5 -173t91.5 -81q47 0 70.5 39t23.5 90q0 76 -48 125t-151 123q-4 -27 -6 -40t-2 -38v-45z" />
<glyph unicode="O" horiz-adv-x="1759" d="M188 537q0 319 247 521t466 250t334 57t233 9q47 0 82 -4t117 -16l-90 -246q156 -47 236.5 -125.5t80.5 -230.5q0 -168 -75.5 -298t-222 -243t-322.5 -170t-367 -57q-295 0 -507 136t-212 417zM324 563q0 -266 186 -401t465 -135q322 0 553 195.5t231 512.5 q0 113 -49 207t-149 119q-109 -258 -306.5 -426t-455.5 -168l-111 2q-45 0 -86 -23l6 11q43 88 68.5 111.5t79.5 23.5q20 0 71.5 -2t65.5 -2q248 0 383 117.5t229 369.5q-94 23 -176 23q-207 0 -353.5 -94.5t-193.5 -286.5q-8 16 -16 34.5t-8 43.5q0 178 192.5 260t397.5 82 q43 0 94 -6.5t80 -8.5l43 146q-74 12 -146.5 19t-142.5 7q-322 0 -549 -95t-299 -260t-88 -232.5t-16 -143.5z" />
<glyph unicode="P" horiz-adv-x="1826" d="M342 1225l78 278l35 -10q-2 -6 -9.5 -39t-7.5 -59q0 -45 42 -66.5t151 -21.5q150 0 503 26.5t476 26.5q184 0 302 -60.5t118 -226.5q0 -197 -147.5 -350.5t-344.5 -153.5q-131 0 -208 55.5t-181 182.5l-401 -596q66 47 140.5 76.5t149.5 29.5q121 0 265.5 -58t197.5 -79 q49 -23 100.5 -42t73.5 -19q29 0 66 35.5t63 74.5l31 -18q-78 -115 -154 -227q-78 20 -333.5 129.5t-409.5 109.5q-92 0 -156.5 -34.5t-171.5 -178.5l-30 21l204 309q-122 151 -122 337q0 155 94 277q94 124 237 123q59 0 114.5 -30.5t90.5 -79.5q23 41 47.5 85t24.5 89 q0 6 -5 12l-10 12h13q78 4 98 7.5t35 3.5q-29 -39 -52.5 -76t-48.5 -76l-69 -100l4 -4q119 -160 190.5 -223.5t202.5 -63.5q129 0 217 119.5t88 255.5q0 133 -90 181t-237 48q-70 0 -229.5 -11.5t-207.5 -11.5l-69 -6q-74 0 -221.5 -14t-223.5 -14h-34q-96 0 -166 8t-113 37 zM723 754q0 -84 34 -150.5t101 -148.5l260 391q-45 66 -90 103.5t-104 37.5q-94 0 -147.5 -68.5t-53.5 -164.5z" />
<glyph unicode="Q" horiz-adv-x="1945" d="M190 545q0 188 90.5 335.5t267.5 266.5t397 175t466 56h57q61 0 90 -3t109 -15q-12 -55 -35.5 -120.5t-54.5 -127.5q154 -45 235.5 -128t81.5 -232q0 -137 -61 -256t-170 -228q86 -70 134 -107.5t73 -37.5q23 0 58.5 39t45.5 43l27 -21q-39 -35 -95.5 -91t-105.5 -105 q-61 47 -140 111.5t-91 78.5l-4 6q-137 -98 -309.5 -148t-348.5 -50q-305 0 -511 134t-206 425zM324 561q0 -268 188 -399t469 -131q143 0 286.5 48t250.5 138q-160 123 -357.5 210t-369.5 87q-41 0 -69 -3t-60 -11q25 29 53 62.5t45 64.5l104 -6q233 0 387 117.5t242 342.5 q-43 10 -86 14.5t-90 4.5q-197 0 -348.5 -100.5t-186.5 -284.5q-25 33 -24 80q0 176 190.5 261t394.5 85h21q31 0 66.5 -3t78.5 -12q14 37 21.5 66t17.5 82q-98 12 -156.5 17t-129.5 5q-307 0 -529.5 -92t-315.5 -286.5t-93 -356.5zM1040 590q172 -47 284 -104.5t282 -176.5 q74 84 114.5 195.5t40.5 224.5q0 125 -47 212t-155 126q-111 -199 -221.5 -307.5t-297.5 -169.5z" />
<glyph unicode="R" horiz-adv-x="2177" d="M158 459q0 211 112.5 375.5t319.5 295t474 193.5t558 63q229 0 418.5 -54t189.5 -226q0 -141 -118.5 -208t-219.5 -122q-31 -31 -47 -76q-16 4 -38.5 4.5t-34.5 0.5h-72l-117 -5l-37 -96l291 -270q61 -63 144 -144t110 -81q25 0 50.5 14t58.5 41l24 -29 q-27 -27 -84 -68.5t-123 -91.5l-80 82l-82 82q-96 100 -128.5 132t-114.5 108q-55 47 -87 75.5t-38 37.5q-127 -223 -350.5 -370t-468.5 -147q-223 0 -366.5 131.5t-143.5 352.5zM283 498q0 -205 133 -327t342 -122q184 0 343 98.5t251 264.5l71 141q-76 68 -152.5 108.5 t-162.5 40.5q-135 0 -217 -86t-82 -221q0 -18 3 -40.5t5 -35.5q-76 39 -76 119q0 121 164 241t291 120q78 0 125 -27t152 -104q25 41 60.5 164.5t35.5 164.5q0 31 -17.5 43.5t-50.5 12.5q-16 0 -30.5 -3t-28.5 -6l-10 35q143 33 292 76q-23 -86 -43 -164t-53 -176l47 -2 q231 0 324.5 77t93.5 200q0 162 -190.5 203.5t-434.5 41.5q-74 0 -135 -6t-224 -32.5t-333 -105.5t-282.5 -206t-161.5 -243.5t-49 -243.5z" />
<glyph unicode="S" horiz-adv-x="2349" d="M268 737q0 262 142.5 454.5t396.5 192.5q281 0 419 -167.5t247.5 -540.5t123.5 -408q104 61 202.5 216t117.5 278h-62q-125 0 -205.5 22.5t-80.5 98.5q0 41 19.5 88t86 147.5t230 181t383.5 111.5q-16 -49 -29.5 -124t-13.5 -120q0 -29 32 -28q8 0 37 11t33 13l14 4 l13 -32q-49 -25 -122 -55.5t-151 -59.5q6 31 11.5 78t15.5 139q0 68 -55 68q-121 0 -256.5 -107.5t-135.5 -228.5q0 -51 52.5 -68.5t130.5 -17.5h67l2 43q0 43 -4 77.5t-18 69.5q63 -14 80.5 -62t17.5 -128l135 2q41 0 85 -1t81 -16q86 -45 120 -86t34 -129 q0 -254 -194.5 -456.5t-448.5 -202.5q-104 0 -181 40t-133 126q-109 -68 -249 -111t-269 -43q-330 0 -525.5 200t-195.5 531zM346 815q0 -303 207 -522t510 -219q109 0 217.5 32t210.5 89q-8 18 -15.5 36.5t-9.5 22.5l-20 49q-57 207 -126 451.5t-194 413.5t-342 169 q-221 0 -329.5 -147.5t-108.5 -374.5zM1614 229q47 -96 104.5 -142t155.5 -46q197 0 340 159.5t143 358.5q0 131 -73.5 167t-217.5 36l-75 2q-35 -145 -142.5 -297t-234.5 -238z" />
<glyph unicode="T" horiz-adv-x="1765" d="M242 868q0 197 196.5 369t395.5 172q121 0 239.5 -29.5t239.5 -64.5l8 2q147 53 262 80.5t246 27.5q115 0 214 -35.5t99 -129.5q0 -84 -99 -116t-140 -45.5t-50.5 -18.5t-37.5 -23l-297 76l-277 75q-6 4 -19.5 7.5t-21.5 3.5q-195 -104 -321.5 -324.5t-126.5 -443.5 q0 -182 121.5 -264.5t312.5 -82.5q266 0 437 155t206 421q27 -53 26 -100q0 -129 -140 -278.5t-278.5 -226.5t-295.5 -77q-215 0 -363.5 105.5t-148.5 312.5q0 193 99 388t192.5 270t131.5 99.5t95 59.5q-82 29 -195.5 50.5t-193.5 21.5q-199 0 -324 -121t-125 -320 q0 -43 6.5 -81t18.5 -85q-92 63 -92 170zM1378 1296q12 -4 38 -13t30 -7l4 -4q37 -8 210 -54.5t284 -46.5q53 0 102 15.5t49 56.5q0 72 -110.5 103.5t-206.5 31.5q-98 0 -209 -21.5t-191 -60.5z" />
<glyph unicode="U" horiz-adv-x="2408" d="M197 655q0 276 249.5 459.5t429 206t258 27t150.5 4.5h72q31 0 61.5 -1t63.5 -8q-27 -129 -65 -238.5t-122 -336.5q-78 -186 -149.5 -367.5t-71.5 -240.5q0 -41 30 -66.5t73 -25.5q90 0 288.5 110.5t296.5 196.5q20 55 91 310t152 407.5t173 211t136 76t81 17.5 q53 0 76.5 -35t23.5 -90q0 -137 -97 -293t-225 -288t-280 -261l-80 -303h289q158 0 255.5 116.5t97.5 276.5v31q-4 20 -5 31q31 -27 38 -52.5t7 -76.5q0 -154 -164.5 -292t-322.5 -138h-362q25 45 57.5 158.5t38.5 127.5q-156 -113 -338 -209t-303 -96q-61 0 -108.5 35 t-47.5 94q0 61 26.5 139t93 244t149.5 391.5t83 290.5q0 61 -54 79.5t-132 18.5q-348 0 -591 -191.5t-243 -531.5q0 -41 7.5 -91t13.5 -83q-51 43 -75.5 112t-24.5 144zM1917 502q170 135 325.5 352t155.5 389q0 43 -13 69.5t-50 26.5q-92 0 -177 -160.5t-127 -292.5 t-114 -384z" />
<glyph unicode="V" horiz-adv-x="2244" d="M289 844q0 279 177 470t454 191q201 0 345 -102.5t235 -267t145 -498.5q197 63 271.5 91t143 61.5t114.5 66.5t87 62q-16 111 -111.5 190.5t-171 98t-139 26.5t-94.5 14l-31 4q27 31 54.5 60.5t33.5 40.5h31l229 -6q106 0 322.5 7t292.5 7q-47 -111 -128 -212t-186 -192 q0 -90 -82.5 -205.5t-189 -218t-197.5 -186.5l-110 -102q-55 -51 -121 -123t-125 -137q6 53 8 133t2 90q0 119 -3 171t-15 150q-141 -53 -240.5 -143t-99.5 -217q0 -70 37 -135q-47 0 -76 32.5t-29 81.5q0 131 128 251t276 188q-29 262 -126 460.5t-263 287.5t-303 89 q-221 0 -356.5 -155.5t-135.5 -382.5q0 -231 165 -390t398 -159q39 0 72 4t70 16l6 -18q-117 -59 -242 -59q-225 0 -373.5 168.5t-148.5 396.5zM1649 164l53 53q33 27 79 73t151.5 146.5t200.5 206.5t118 217q-98 -88 -214 -147.5t-255 -98.5l-115 -36l-6 -5l-10 -2l6 -247 v-60v-63q-6 -27 -8 -37zM2114 1268q106 -45 171.5 -106.5t75.5 -157.5q68 59 112 122.5t83 149.5h-14l-267 -4q-27 0 -82 -2t-79 -2z" />
<glyph unicode="W" horiz-adv-x="2682" d="M211 608q0 350 254 556t612 206q311 0 514 -152.5t281 -453.5q158 172 301 302t314 224t343 94q102 0 174 -54t72 -154q0 -193 -187.5 -320t-410.5 -172q-68 -106 -143.5 -197.5t-173 -194t-215.5 -222.5l-119 -115l2 92q0 285 -43 571q-25 -31 -117 -141t-190.5 -235 t-146.5 -187.5t-77 -89.5q0 158 -18 501t-39.5 372.5t-48.5 29.5q-18 0 -40 -11t-32 -15l-18 32l6 5q16 12 54 31.5t66.5 36t56.5 33.5t56 36q35 -188 47.5 -398t12.5 -462l8 10q29 33 96.5 119t96.5 118l219 261l-4 20q-127 0 -203 -51t-76 -172q-14 8 -20.5 22.5 t-6.5 32.5q0 80 80 146.5t172 93.5l33 8q-82 258 -278.5 403.5t-466.5 145.5q-297 0 -499 -176t-202 -469q0 -260 172 -438.5t432 -178.5q29 0 44.5 2t52.5 8l4 -18q-47 -16 -105.5 -24.5t-109.5 -8.5q-258 0 -422 170t-164 428zM1888 684q20 -84 33.5 -222t13.5 -349 q104 90 250 268t209 293l-127 -8h-65q-63 0 -182 9t-132 9zM1923 762q86 -8 195.5 -14.5t201.5 -6.5h43h33q25 4 35 4q20 39 30.5 67t10.5 60q0 47 -34 52.5t-77 5.5v37h252q-10 -51 -31.5 -97.5t-60.5 -115.5q92 23 184 45q111 41 190 126.5t79 198.5q0 92 -62.5 137.5 t-156.5 45.5q-145 0 -295 -83t-284 -205t-253 -257z" />
<glyph unicode="X" horiz-adv-x="2342" d="M135 496q0 201 121 325.5t324 124.5q145 0 265 -61.5t209 -148.5t220 -238q23 27 34 50t11 56q0 84 -53.5 106.5t-163.5 32.5q29 37 47 61.5t31 47.5l8 -2q49 0 167 -13.5t161 -13.5q-39 123 -76 246q-68 193 -119 193q-18 0 -39.5 -14.5t-42.5 -33.5l-25 31 q53 37 110.5 80t92.5 78q84 -137 136.5 -306t86.5 -282l43 -4q27 29 68 86t95.5 126t153.5 164t218 153.5t268 58.5q102 0 176 -47.5t74 -145.5q0 -250 -312.5 -377t-641.5 -127q-61 0 -109 7q39 -131 113 -328t105.5 -225.5t54.5 -28.5q16 0 35.5 11.5t56.5 37.5l22 -29 q-6 -8 -69.5 -52t-112.5 -77l-51 -30q-82 137 -145.5 321.5t-98.5 294.5q-16 -25 -45 -60.5t-128 -162.5t-293.5 -261t-430.5 -134q-238 0 -394.5 138t-156.5 372zM188 555q0 -217 161 -344t384 -127q186 0 329.5 72.5t263.5 196.5t245 292l-19 68q-117 0 -237 16 q23 -29 34 -55.5t11 -59.5q0 -63 -41 -117.5t-109 -111.5q-133 156 -223 250t-214 171t-257 77q-147 0 -237.5 -90.5t-90.5 -237.5zM1726 809q39 0 131.5 -4t98.5 -4q252 0 470 73.5t218 276.5q0 88 -66.5 130t-160.5 42q-143 0 -265 -76t-200 -163t-226 -275z" />
<glyph unicode="Y" horiz-adv-x="2533" d="M254 731q0 272 177 453.5t448 181.5q287 0 432 -186.5t174 -489.5q18 4 37.5 4h29.5h19q29 0 53.5 -1t99.5 -9q137 207 266.5 358.5t294 254t369.5 102.5q119 0 192.5 -53t73.5 -168q0 -82 -34.5 -156t-144 -195.5t-317.5 -192.5t-466 -71q-45 0 -129 9.5t-92 9.5 q-23 4 -31 4l-16 -25q-12 -33 -68.5 -123t-79 -126l-37.5 -60l-26 -49v-8l-6 -66q-2 -6 -3 -12l-2 -23l-4 -39q-41 -16 -58 -23t-49 -39t-59.5 -118t-27.5 -164q0 -63 22.5 -96t83.5 -55l-49 -140q-76 33 -102.5 89.5t-26.5 146.5q0 74 31 154.5t60.5 140t37.5 73t21.5 56.5 t16.5 130t3 130l-2 244q-147 -31 -241.5 -137.5t-94.5 -253.5q0 -84 25.5 -140.5t89.5 -122.5l-25 -2q-74 0 -111.5 62.5t-37.5 142.5q0 180 106.5 314.5t282.5 211.5q-8 78 -12.5 110t-34 155t-166.5 249.5t-326 126.5q-221 0 -358 -139t-137 -358q0 -207 129 -384 t325 -224v-19q-236 0 -381 158t-145 397zM1481 285q4 12 88 151t92 148l2 6q-29 2 -60.5 6t-52.5 4h-39l-22 -2l2 -27v-82q0 -39 -1 -71.5t-9 -132.5zM1765 680q111 -12 183.5 -17.5t156.5 -5.5q186 0 346 46.5t242 126t114 143t32 131.5q0 100 -76 156.5t-180 56.5 q-166 0 -317.5 -95.5t-268.5 -231.5t-232 -310z" />
<glyph unicode="Z" horiz-adv-x="1937" d="M80 313q0 291 202.5 439.5t505.5 148.5q76 0 104 -2t187 -18l99 104q-88 82 -146.5 133t-91.5 51q-27 0 -38 -36.5t-19 -94.5l-41 4l73 363q141 -137 238.5 -216t138.5 -89q117 119 200 184.5t175 65.5q68 0 68 -68q0 -98 -125 -162.5t-242 -75.5q-41 0 -78 -17 t-64.5 -44t-97.5 -104q156 -14 334 -15q-29 -100 -57 -200l-10 -37h-35q10 41 10 78q0 39 -19.5 50t-127 17t-189.5 10q-184 -190 -368 -379q102 68 212.5 117t204.5 49q86 0 204 -41t288 -147q72 43 121 61.5t84 18.5q55 0 79.5 -15.5t47.5 -64.5q-51 22 -114 22h-5 q-47 0 -87 -12t-85 -37q94 -57 156.5 -104t218.5 -170l-113 -90q-66 66 -172.5 142.5t-214.5 146.5l-6 -3q-43 -25 -92.5 -67.5t-131 -110t-167.5 -131t-201 -112t-244 -48.5q-238 0 -403.5 136.5t-165.5 369.5zM129 377q0 -119 68.5 -236.5t190.5 -175t278 -57.5 q143 0 249.5 37t198.5 100.5t171 127t122 94t47 34.5q-8 2 -54 31.5t-99.5 57.5t-143.5 59.5t-170 31.5q-141 0 -336.5 -132t-324.5 -271l-27 31q74 61 145.5 128.5t134 131t105.5 108.5t76 74t118 117t107 120q-145 18 -189 22.5t-116 4.5q-88 0 -129 -3t-139.5 -32.5 t-190.5 -146.5t-92 -256zM1337 1092l43 -7q63 0 153.5 43.5t90.5 98.5q0 33 -43 33q-63 0 -130 -58.5t-114 -109.5z" />
<glyph unicode="[" horiz-adv-x="655" d="M82 -133l588 1620h348l-27 -47h-231l-553 -1528h239l-24 -45h-340z" />
<glyph unicode="\" horiz-adv-x="647" d="M401 1491h39l80 -1630h-35z" />
<glyph unicode="]" horiz-adv-x="780" d="M-4 -131l27 43h219l561 1528h-223l22 45h322l-590 -1616h-338z" />
<glyph unicode="^" horiz-adv-x="976" d="M-49 582l557 835h12l539 -835h-66l-426 651l-436 -651h-180z" />
<glyph unicode="_" horiz-adv-x="976" d="M51 -178h912v-76h-912v76z" />
<glyph unicode="`" horiz-adv-x="976" d="M561 1104l29 86q113 -31 181 -123t91 -217q-55 94 -127.5 157.5t-173.5 96.5z" />
<glyph unicode="a" horiz-adv-x="731" d="M-20 90q0 236 241.5 443.5t416.5 248.5t259 41h2q31 0 31 -24q0 -8 -7.5 -26.5t-21.5 -49.5q-57 6 -113 12q-74 0 -138 -9t-173.5 -51t-247 -199t-137.5 -316q0 -33 13.5 -55.5t44.5 -22.5q23 0 37 6t93.5 62.5t180 217t135.5 320.5q25 -18 34 -39.5t9 -54.5 q0 -59 -24.5 -108.5t-73.5 -110.5q29 0 64.5 11t51.5 15q-51 -133 -100 -264q0 -27 27 -26q12 0 38.5 14t49.5 27l18 -27q-53 -39 -127 -69.5t-157 -51.5q0 57 34.5 149.5t81.5 192.5q-82 -104 -232.5 -225t-242.5 -121q-35 0 -51 25.5t-16 64.5z" />
<glyph unicode="b" horiz-adv-x="718" d="M-39 0q74 172 174.5 414.5t197.5 493.5t97 288q0 29 -35 29q-14 0 -27.5 -4t-43.5 -15l-11 31q63 18 117.5 44t163.5 81q-10 -111 -98 -341t-191 -466q109 106 227.5 185t225.5 79q90 0 90 -96q0 -74 -28.5 -137.5t-124 -191.5t-310.5 -261t-424 -133zM106 98l41 -4 q145 0 266.5 96.5t177.5 197.5t81.5 165t25.5 113q0 69 -61 69h-2q-137 0 -298 -226t-231 -411z" />
<glyph unicode="c" horiz-adv-x="577" d="M0 135q0 174 140.5 357.5t256 247t175 77.5t133.5 14l22 -2l-139 -258h-35q6 14 24.5 59.5t18.5 59.5q0 27 -21.5 32t-54.5 5q-61 0 -136 -38t-166 -211t-91 -288q0 -49 25.5 -78.5t74.5 -29.5q137 0 213 103.5t140 211.5l8 17l6 -8l6 -19v-12q0 -115 -174 -250 t-295 -135q-63 0 -97 40t-34 105z" />
<glyph unicode="d" horiz-adv-x="761" d="M-23 92q0 170 156 350.5t306.5 261t301.5 109.5q29 70 80 204t51 159q0 45 -51 45q-12 0 -26.5 -6.5t-20.5 -8.5l-12 31q72 25 148.5 54.5t129.5 66.5q0 -51 -82.5 -265t-113.5 -280q37 -16 51 -36.5t14 -61.5q-14 4 -46 10t-48 6q0 -12 -111.5 -279.5t-111.5 -320.5 q0 -29 26 -29q12 0 50.5 16.5t44.5 26.5l6 2l18 -24q-133 -82 -299 -125q37 154 147.5 424t127.5 315h-8q-211 0 -412 -177t-201 -386q0 -37 12.5 -59.5t47.5 -22.5q18 0 38.5 7t89 48t152.5 180.5t139 303.5q16 -33 17 -74q0 -123 -122 -267.5t-218 -202.5t-123 -72.5 t-66 -14.5q-43 0 -62.5 23.5t-19.5 68.5z" />
<glyph unicode="e" horiz-adv-x="565" d="M2 119q0 184 124 367.5t231.5 241.5t169 79.5t106.5 21.5q35 0 55.5 -12t20.5 -45q0 -96 -142.5 -193.5t-247.5 -97.5q-47 0 -63 51l66 -4q80 0 174 50.5t94 123.5q0 27 -16.5 39.5t-45.5 12.5q-152 0 -281.5 -208t-129.5 -374q0 -47 19.5 -73.5t66.5 -26.5 q113 0 209 115.5t149 250.5q14 -20 14 -49q0 -115 -171 -257t-287 -142q-55 0 -85 35.5t-30 93.5z" />
<glyph unicode="f" horiz-adv-x="370" d="M-500 -475l2 18l2 8q29 -4 54.5 -8t48.5 -4q113 0 178 58.5t104 122t79 153.5t98.5 251t109.5 318.5t105 327.5h-109l12 27l31 2q43 0 68 22q23 16 86 132t103 167t188.5 142.5t254.5 91.5q35 0 51.5 -4t16.5 -29q0 -8 -7 -27.5t-13 -36.5l-48 -137h-32q16 47 19 58.5 t3 27.5q0 37 -27.5 47.5t-70.5 10.5q-162 0 -244 -122t-164 -341h160l-10 -31h-160l-270 -760q-29 0 -41 -3t-27.5 -27.5t-32 -63.5t-30.5 -78q-76 -152 -124 -220.5t-109.5 -105t-95.5 -49t-65 -12.5q-39 0 -66.5 18.5t-27.5 55.5z" />
<glyph unicode="g" horiz-adv-x="733" d="M-236 -459q0 8 5.5 20.5t7.5 18.5q49 -35 93 -52t99 -17q164 0 282 174t166 338.5t87 289.5q-152 -152 -251 -234.5t-185 -82.5q-43 0 -64.5 29.5t-21.5 72.5q0 188 194.5 389t366.5 266.5t327 65.5q33 0 48.5 -6t15.5 -33q0 -16 -8 -35.5t-13 -29.5q-14 4 -43.5 6 t-46.5 2h-28q-227 0 -389 -85t-221.5 -202t-77 -170t-17.5 -92q0 -37 13.5 -65.5t46.5 -28.5q84 0 206.5 147.5t154.5 217t46 114.5t25 88q23 -20 32 -38.5t9 -49.5q0 -55 -26 -106.5t-73 -114.5q35 6 57.5 10t41.5 4l8 2q-61 -209 -125 -362.5t-166 -284.5t-205.5 -183 t-152 -67.5t-97.5 -15.5q-55 0 -88 23.5t-33 76.5z" />
<glyph unicode="h" horiz-adv-x="733" d="M-25 12q10 25 42 100.5t46.5 107.5t69.5 174.5t128 333t159 413.5l8 53q0 37 -31 37q-16 0 -28.5 -4t-44.5 -17l-11 31q66 23 129.5 50.5t126.5 64.5l2 -27q0 -41 -6 -69.5t-29.5 -108.5t-78 -212t-95 -236.5t-76.5 -193.5t-81 -183q137 176 293.5 333.5t265.5 157.5 q47 0 47 -49q0 -43 -30.5 -105.5t-56.5 -115.5t-95.5 -221t-69.5 -203q4 -12 7 -15.5t16 -7.5q18 0 54 18.5t42 20.5l18 -24q-29 -23 -71.5 -40.5t-204.5 -74.5q0 98 80 288.5t164 387.5q0 31 -21 31q-14 0 -42 -17.5t-89 -63.5t-205.5 -239.5t-204.5 -335.5 q-72 -10 -127 -39z" />
<glyph unicode="i" horiz-adv-x="346" d="M20 -2q16 106 21.5 132t28.5 87q92 205 146 332t54 151q0 31 -26 31q-10 0 -44 -11t-53 -20l-8 33q31 10 71 25.5t50 21.5l154 64v-10q0 -80 -39 -174.5t-129 -290t-90 -232.5q0 -29 34 -28q10 0 33 8t33 12l12 -29q-61 -29 -135 -62.5t-113 -39.5zM403 1030 q0 29 18.5 49.5t47.5 20.5q47 0 47 -45q0 -27 -20.5 -47.5t-44.5 -20.5q-18 0 -33 12.5t-15 30.5z" />
<glyph unicode="j" horiz-adv-x="317" d="M-793 -453l7 29q45 -27 82.5 -40t85.5 -13q35 0 72.5 7t136 44t217 175t195.5 294t138.5 301t90 227t28.5 117q0 43 -47 43q-16 0 -49 -8l-4 31q45 12 91 24.5t93 30.5l98 41q-80 -264 -183 -496.5t-249.5 -433.5t-287 -299t-225.5 -137t-161 -39q-51 0 -90 26.5 t-39 75.5zM432 1030q0 29 18.5 49.5t47.5 20.5q47 0 47 -45q0 -27 -20.5 -47.5t-47.5 -20.5q-16 0 -30.5 12.5t-14.5 30.5z" />
<glyph unicode="k" horiz-adv-x="739" d="M-33 0q18 31 37 79t40.5 100t50 126t87 217.5t118.5 294t86 230t32 103.5t6 44q0 39 -43 39q-12 0 -55 -16l-17 -7l-10 31q141 53 274 127v-8q0 -14 -5 -38t-25.5 -111t-74.5 -233.5t-136 -336.5l-2 -6l-39 -98q100 119 231 202.5t262 83.5q39 0 64.5 -16t25.5 -55 q0 -90 -118.5 -155t-186 -80t-88 -20t-38 -18.5t-25.5 -28t-17 -40.5q117 -20 117 -134q0 -25 -16.5 -73.5t-16.5 -77.5q0 -25 16.5 -39t43.5 -14q57 20 91 76.5t54 130.5q20 -29 21 -58q0 -70 -89.5 -146.5t-160.5 -76.5q-45 0 -68.5 29.5t-23.5 74.5q0 31 26.5 102.5 t26.5 98.5q0 66 -46 90.5t-116 24.5l-18 -2q-18 -51 -54 -137t-55 -136l-35 -100l-12 -4h-3q-17 1 -61 -17q-48 -20 -55 -22zM326 516l14 -2q113 0 256 51.5t143 139.5q0 57 -59 57q-80 0 -187.5 -83t-166.5 -163z" />
<glyph unicode="l" horiz-adv-x="317" d="M25 86q0 49 35.5 167t62.5 167q51 125 130 313.5t133 323.5t54 157q0 27 -32 27q-20 0 -50 -12l-8 -2l-8 -2l-10 28q154 57 165 62.5t95 46.5q0 -88 -31 -168t-143.5 -343t-173 -422t-77.5 -212t-17 -76q0 -43 36 -43q20 0 52 22.5t59 47.5l18 -27q-35 -37 -114.5 -88 t-116.5 -51q-25 0 -42 19.5t-17 64.5z" />
<glyph unicode="m" horiz-adv-x="1058" d="M-10 2l2 6q10 10 94 221t99.5 244t40 107.5t24.5 93.5q0 31 -31 31q-12 0 -23.5 -4.5t-35.5 -14.5l-13 33q55 20 125 59q80 49 119 72l4 -37q0 -86 -51 -215q-39 -86 -53 -123q102 133 218 243.5t208 110.5q45 0 45 -47t-33 -142t-67 -177q86 113 225 239.5t227 126.5 q41 0 41 -45q0 -39 -128 -305t-128 -332q4 -16 9 -21t20 -5q14 0 25.5 6t35.5 20l19 -26q-119 -76 -250 -121q10 98 12 115q12 45 25.5 95t39 115.5t58.5 136t67.5 143.5t34.5 79q0 25 -20 25q-27 0 -94.5 -58.5t-129 -129t-110.5 -160t-81 -157t-50 -132.5l-6 -17 q-33 -10 -63.5 -22.5t-75.5 -32.5q115 285 178 458t63 224q0 29 -26 29q-14 0 -36 -14.5t-88.5 -73t-160.5 -218t-176 -354.5l-8 -2l-82 -31z" />
<glyph unicode="n" horiz-adv-x="759" d="M-14 -2q12 12 125.5 287.5t126 310.5t17.5 56.5t5 35.5q0 35 -31 35q-14 0 -38.5 -8t-34.5 -10l-6 32l106 33q27 8 66.5 24.5t91.5 36.5l2 -16q0 -55 -35 -145t-109 -258q133 152 281.5 283.5t249.5 131.5q47 0 47 -49t-40 -129t-142.5 -280.5t-102.5 -233.5 q0 -29 27 -29q16 0 41.5 12.5t44.5 24.5l16 -26q-63 -45 -132.5 -74t-147.5 -43q0 82 94 284.5t194 411.5q0 27 -22 27q-16 0 -32.5 -10.5t-112 -81t-214 -230t-206.5 -358.5h-9q-10 -6 -49 -20.5t-71 -24.5z" />
<glyph unicode="o" horiz-adv-x="645" d="M4 143q0 229 234.5 451.5t463.5 222.5q46 0 46 -41q0 -8 -4.5 -22.5t-8.5 -24.5l-90 6q-182 0 -293.5 -90t-160 -206.5t-60.5 -163t-12 -93.5q0 -45 27.5 -77.5t72.5 -32.5q115 0 233.5 172t118.5 295q0 31 -14 52t-43 21q-47 0 -85 -48t-64 -109l-7 30q0 66 77 132.5 t145 66.5q49 0 78.5 -38t29.5 -89q0 -160 -199.5 -357.5t-353.5 -197.5q-55 0 -93 42t-38 99z" />
<glyph unicode="p" horiz-adv-x="614" d="M-213 -537q53 121 128 322t146.5 399.5t94.5 259.5l10 5h8q61 0 108 119q50 126 58 149l-27 2q-35 0 -72.5 -2t-72.5 -8l-53 -138l-27 13l84 225l35 4l94 4l47 2h19l12 2l61 174h31l-59 -174q117 0 185.5 -44.5t68.5 -155.5q0 -123 -69 -261.5t-146.5 -205t-126 -95 t-95.5 -28.5q-61 0 -61 61q0 6 4 15.5t8 19.5q41 -35 88 -35q119 0 213 161t94 292q0 92 -53 132t-149 40l-4 -12q-25 -51 -79 -201t-65 -174l-317 -815l-4 -13z" />
<glyph unicode="q" horiz-adv-x="710" d="M-20 111q0 61 27.5 125.5t112.5 193.5t317.5 264t457.5 135h4q43 0 43 -24q0 -16 -11 -35.5t-16 -30.5l-120 6q-203 0 -376 -100t-232.5 -223t-70 -164t-10.5 -74q0 -31 17.5 -53t48.5 -22q90 0 207 144t145.5 210.5t49 126t24.5 76.5q41 -35 41 -88q0 -61 -27.5 -108.5 t-68.5 -104.5h8l80 14l-10 -25q-109 -276 -215 -553l-121 -295q-29 -8 -72 -32.5t-57 -28.5q43 100 86 199q39 109 110.5 283.5t93 234t52.5 145.5q-100 -102 -226.5 -201.5t-203.5 -99.5q-41 0 -64.5 32t-23.5 73z" />
<glyph unicode="r" horiz-adv-x="489" d="M0 0q12 66 47 149.5t62.5 152.5t69.5 194t42 155q0 31 -26 31q-16 0 -30.5 -6t-37.5 -21l-14 31q131 57 249 150l5 -9v-14q0 -57 -17.5 -114.5t-52.5 -149.5q117 129 200 204.5t160 75.5l21 -2l14 -8l-35 -102q-27 8 -65 8q-37 0 -65.5 -12.5t-107.5 -71.5t-148.5 -209.5 t-149.5 -398.5q-20 -2 -60.5 -14.5t-60.5 -18.5z" />
<glyph unicode="s" horiz-adv-x="440" d="M-92 82q0 49 24 88q31 -49 66 -76.5t86 -27.5q70 0 126 47t56 116q0 47 -48 146.5t-48 142.5q0 82 82 175t137 110.5t81 19.5t67 2q47 0 67 -6q-12 -33 -49 -90t-76 -113l-24 19q8 12 17 36.5t9 37.5q0 25 -18.5 32t-44.5 7q-59 0 -105.5 -44.5t-46.5 -105.5 q0 -39 45 -133t45 -158q0 -109 -111.5 -212t-221.5 -103q-47 0 -81 22.5t-34 67.5z" />
<glyph unicode="t" horiz-adv-x="387" d="M0 70q0 49 91 253.5t165 366.5q18 49 39 101h-129l14 30q100 0 134 34t73 144h111l-74 -178h139l-14 -30h-139q-121 -266 -200 -445.5t-79 -216.5q0 -45 45 -45q25 0 69 19.5t74 39.5l15 -24q-51 -37 -128 -73t-130 -36q-33 0 -54.5 14.5t-21.5 45.5z" />
<glyph unicode="u" horiz-adv-x="710" d="M20 84q0 88 120 331.5t120 276.5q0 37 -35 37q-31 0 -55 -12l-8 31q68 18 111.5 33.5t136.5 49.5q0 -74 -69 -216t-137.5 -281t-68.5 -187q0 -43 37 -43q102 0 234.5 178.5t176.5 252t65.5 126t43.5 117.5q67 19 135 37q-18 -45 -39.5 -88t-61.5 -130t-67.5 -152.5 t-64.5 -159.5q0 -14 -18.5 -57.5t-18.5 -65.5q0 -31 35 -31q18 0 41.5 8t34.5 13l14 -27q-55 -29 -135 -60.5t-129 -50.5q31 172 98 344q-92 -119 -215 -231.5t-215 -112.5q-29 0 -47.5 20.5t-18.5 49.5z" />
<glyph unicode="v" horiz-adv-x="626" d="M39 -4q63 137 127.5 339t64.5 306q0 41 -7 67.5t-36 26.5q-16 0 -38.5 -12t-47.5 -29l-14 31q43 27 98.5 60.5t94.5 33.5q43 0 56 -37t13 -92q0 -84 -27.5 -189.5t-68.5 -209.5q-25 -53 -43 -101.5t-21 -60.5q201 96 335 234.5t171 330.5h-82q-92 0 -116.5 -13t-67.5 -89 h-37q20 29 51 97.5t43 107.5h326q-63 -188 -170.5 -342t-197 -215.5t-109.5 -75.5l-10 -4q-6 -6 -128 -77t-149 -83z" />
<glyph unicode="w" horiz-adv-x="940" d="M70 -2q68 164 113.5 326.5t45.5 291.5q0 35 -8 64t-37 29q-16 0 -29.5 -8.5t-31.5 -24.5l-17 29q80 55 160 112q43 -23 62.5 -60.5t19.5 -90.5q0 -39 -14.5 -118t-32.5 -155l-4 -8l-21 -68l-40 -124l30 43l4 6q29 41 60.5 100t80 147.5t124 184.5t174.5 153l-144 -675 q193 156 307.5 260t159.5 278h-162q-68 0 -88 -43t-32 -61h-35l94 211h336q-53 -152 -131 -261.5t-159 -184.5t-210 -186.5t-201 -172.5q16 70 35 165t33 183t28.5 176t30.5 148q-43 -53 -100 -163t-113.5 -199t-135.5 -174t-152 -130z" />
<glyph unicode="x" horiz-adv-x="860" d="M-92 86q0 31 24 66q14 -43 51 -66t87 -23q92 0 187 104.5t144 213.5h-192l16 31h193l33 82q16 47 26 88t10 75q0 35 -19 58.5t-52 23.5q-111 0 -190 -108.5t-79 -218.5q-25 35 -24 73q0 113 132 224.5t245 111.5q59 0 81.5 -33.5t22.5 -97.5q0 -18 -6 -42.5t-10 -45.5 q76 68 153 135q94 70 189 70q18 0 37.5 -5t25.5 -5l-55 -115l-57 -131l-31 6q4 14 14 45t10 43q0 18 -11 29.5t-46 11.5q-102 0 -178 -81t-127 -193h199l-19 -31h-194q-23 -39 -35 -84t-12 -90q0 -57 33.5 -91t90.5 -34q111 0 182.5 96t90.5 217q12 -10 17 -26.5t5 -36.5 q0 -111 -130 -224.5t-242 -113.5q-72 0 -110 42t-38 116q0 12 1 21t7 34l-6 -6q-94 -88 -166.5 -146.5t-154.5 -58.5q-45 0 -84 22.5t-39 67.5z" />
<glyph unicode="y" horiz-adv-x="745" d="M-211 -324q0 45 19.5 89.5t76 117t238.5 93t241.5 52t109.5 78t108.5 120t104.5 172t46 188.5q0 35 -12 57.5t-43 22.5q-84 0 -194.5 -124t-203 -274.5t-147.5 -267.5h-35q76 276 99.5 397t23.5 213q0 31 -8 46.5t-37 15.5q-12 0 -55 -17l-8 31l6 2q2 4 16.5 10.5 t26.5 12.5l6 2q70 39 99.5 54t62.5 34q10 -20 13 -42t3 -59q0 -78 -14.5 -153.5t-44.5 -192.5q186 229 309 334t201 105q37 0 47 -34t10 -63q0 -207 -213 -466t-420 -330q-139 -31 -207.5 -46.5t-104.5 -36t-59.5 -55t-23.5 -61.5q0 -66 60.5 -97.5t131.5 -31.5 q47 0 102.5 13.5t90.5 37.5q-10 -61 -66.5 -91t-126.5 -30q-90 0 -159.5 45t-69.5 129z" />
<glyph unicode="z" horiz-adv-x="686" d="M-72 106q37 59 71 117t56 107q31 -6 49.5 -9.5t38.5 -3.5q172 0 312.5 103.5t249.5 271.5q-2 2 -28 2t-42 2h-35h-102q-55 0 -90 -2t-73 -11t-60.5 -29.5t-43.5 -55.5l-30 -63h-33l57 122q16 35 33.5 84.5t20.5 55.5l540 4q-125 -186 -196.5 -278.5t-178 -165 t-264.5 -95.5q37 -25 119 -103.5t154 -78.5q94 0 136 86t42 192q0 37 -2 55.5t-15 49.5q37 -23 51.5 -53.5t14.5 -77.5q0 -76 -57.5 -175.5t-120 -132t-119.5 -32.5q-111 0 -205 98t-123 98q-27 0 -40 -15t-46 -67h-41z" />
<glyph unicode="{" horiz-adv-x="641" d="M178 57q0 70 74 266.5t74 288.5q0 88 -76 88q-16 0 -35 -6l27 39q147 0 270 280.5t142.5 304t63.5 55.5t95 58.5t81 40t67 13.5q23 0 26.5 -13.5t3.5 -46.5l-59 7q-121 0 -197 -152q-70 -158 -139 -315q-106 -190 -283 -256q53 -33 71.5 -82t18.5 -123q0 -80 -63.5 -253 t-63.5 -233q0 -100 103 -100q29 0 43 4t22 4q-14 -20 -35.5 -39.5t-39.5 -19.5q-57 0 -124 66.5t-67 123.5z" />
<glyph unicode="|" horiz-adv-x="976" d="M461 -338v1690h92v-1690h-92z" />
<glyph unicode="}" horiz-adv-x="641" d="M-66 -84l3 10q25 -4 37 -6t22 -2q109 0 178.5 126t116.5 269.5t141 252t209 155.5q-51 27 -75.5 76t-24.5 114q0 78 54 221.5t54 217.5q0 47 -32.5 64.5t-88.5 17.5l-49 -7q16 27 33.5 43.5t40.5 16.5q66 0 133.5 -58.5t67.5 -121.5t-65.5 -235.5t-65.5 -252.5 q0 -57 24.5 -70.5t89.5 -13.5l-18 -39l-29 2q-78 0 -142.5 -85t-94.5 -177l-4 -4q-94 -250 -137.5 -330t-131.5 -134t-138 -76.5t-77 -22.5q-20 0 -25.5 21.5t-5.5 27.5z" />
<glyph unicode="~" horiz-adv-x="1300" d="M246 1262q51 88 122.5 140t166.5 52q53 0 171.5 -41t161.5 -41q66 0 116 29t95 86l25 -17q-45 -78 -122 -134t-161 -56q-45 0 -174 44t-184 44q-76 0 -108.5 -31.5t-82.5 -91.5z" />
<glyph unicode="&#xa1;" horiz-adv-x="456" d="M-4 -6q20 47 50 143t44 134t96 245t107 272l47 117q39 88 80 178q14 -55 16 -66t2 -40q0 -47 -2 -70.5t-14 -64.5l-43 -135q-29 -53 -123 -310.5t-94 -296.5q0 -41 32.5 -53t81.5 -12l-8 -35l-170 2q-23 0 -38 -1t-64 -7zM414 1245q0 25 20.5 47.5t46.5 22.5q45 0 45 -49 q0 -29 -20.5 -47.5t-46.5 -18.5q-45 0 -45 45z" />
<glyph unicode="&#xa2;" d="M113 143q0 174 157.5 370t331.5 271l2 9q4 8 11.5 39.5t7.5 48.5q0 29 -29 39t-64 10v26q90 0 207 11l-4 -15q0 -2 -15.5 -46t-31.5 -93q70 16 131 16h27l-13 -24q-66 -117 -129 -232h-34q14 35 28.5 69t14.5 44q0 25 -16.5 32t-43.5 7q-59 -164 -125.5 -308.5 t-169.5 -334.5q117 25 203 117t143 219l7 -41q0 -98 -138.5 -222t-244.5 -153l-23 -6q-4 -2 -54 -85t-67 -97q-16 -20 -24 -33l-39 -2q66 106 133 211q-6 -2 -16.5 -2h-14.5q-55 0 -81.5 49t-26.5 106zM242 193q0 -39 15 -71t50 -36q90 164 157 316.5t118 320.5 q-123 -27 -231.5 -210t-108.5 -320z" />
<glyph unicode="&#xa3;" d="M-80 0l51 102q156 0 289 101.5t133 255.5q0 66 -24 131h-150l2 33h137q-25 66 -53.5 164t-28.5 151q0 164 141.5 277.5t309.5 113.5q109 0 174.5 -59.5t65.5 -165.5q0 -102 -65.5 -179t-127 -105.5t-80 -35t-35.5 -6.5q-53 0 -59 56q23 -14 70 -15q84 0 132 73t48 161 q0 98 -50 160.5t-147 62.5q-109 0 -196.5 -74t-87.5 -180q0 -47 58 -206t67 -193h200l-2 -33h-192l4 -31q0 -123 -55.5 -214t-122 -136t-123 -70.5t-80.5 -42.5q57 0 191.5 -4t144.5 -4q139 0 258 112.5t119 254.5q31 -23 30 -60q0 -29 -20.5 -75t-71.5 -116.5t-170 -142 t-250 -71.5q-53 0 -157.5 9t-116.5 9q-27 0 -91.5 -4t-68.5 -4z" />
<glyph unicode="&#xa4;" horiz-adv-x="780" d="M166 410l106 88q-23 43 -22 96q0 63 22.5 106t73.5 107l-86 102l53 47l88 -102q47 39 100.5 60.5t112.5 21.5q70 0 123 -47l86 74l47 -58l-88 -76q20 -47 21 -88q0 -66 -30 -121t-85 -110l90 -107l-55 -45l-86 103q-51 -39 -87 -56.5t-85 -17.5q-82 0 -148 55l-104 -88z M315 647q0 -82 49.5 -133t133.5 -51q94 0 161.5 65.5t67.5 161.5q0 78 -43 129t-119 51q-96 0 -173 -63.5t-77 -159.5z" />
<glyph unicode="&#xa5;" d="M145 1241q29 25 49.5 41t38.5 27l5 4q33 29 60.5 51t45.5 33q72 -119 114 -241t72 -212q25 -92 40.5 -147.5t19.5 -63.5q-2 -8 4 -31.5t14 -52.5l86 277q43 158 215 318.5t330 160.5q14 0 33.5 -2t19.5 -29q-4 -12 -4 -16l-49 -166l-4 -18h-35q6 25 9 43t3 38 q0 63 -73 64q-133 0 -218 -116t-133.5 -278.5t-85.5 -301.5h142v-31h-150l-35 -105h185v-28h-195l-129 -418l-133 -41l145 459h-159v26h164l-19 107h-145v31h135q-4 16 -21.5 66t-17.5 59q-10 23 -25.5 79t-43 147t-54.5 158.5t-48.5 95t-47.5 27.5q-18 0 -42 -14t-44 -31z " />
<glyph unicode="&#xa7;" horiz-adv-x="780" d="M-4 -127l4 14q-2 8 36 96.5t66 155.5l31 -18q-10 -25 -15 -46.5t-5 -43.5q0 -31 26.5 -50.5t85.5 -19.5q117 0 200 42t83 149q0 82 -119 254t-119 247q0 68 43 156t92.5 126t108.5 66q-8 25 -16.5 59t-8.5 58q0 119 91.5 216.5t173.5 120t136 26.5t107 4q23 0 54 -1 t43 -5q-25 -70 -52.5 -139.5t-56.5 -131.5l-31 19q2 6 10.5 42t8.5 50q0 43 -37 57.5t-88 14.5q-106 0 -185 -46.5t-79 -146.5q0 -88 119.5 -251t119.5 -253q0 -102 -73.5 -206.5t-169.5 -143.5q8 -29 14 -57.5t6 -57.5q0 -113 -85 -208t-165 -118.5t-144.5 -29.5t-115.5 -6 h-35q-31 0 -59 6zM365 760q0 -66 64.5 -164t119.5 -178q74 0 126 50t52 126t-64.5 167t-119.5 173q-74 0 -126 -50t-52 -124z" />
<glyph unicode="&#xa8;" horiz-adv-x="976" d="M649 1004q0 29 19.5 48t48.5 19q47 0 47 -45q0 -25 -21.5 -46.5t-46.5 -21.5q-47 0 -47 46zM856 1004q0 29 19.5 48t48.5 19q47 0 47 -45q0 -25 -21.5 -46.5t-46.5 -21.5q-47 0 -47 46z" />
<glyph unicode="&#xaa;" horiz-adv-x="731" d="M197 604l53 117h477q53 0 76.5 3.5t52.5 23.5q-37 -74 -60.5 -88.5t-111.5 -14.5h-412q-29 0 -39 -8q-12 -16 -22 -33h-14zM297 881q0 176 208 307t406 158l93 6l18 -4l6 -13q-12 -33 -16 -47l-4 -8q-41 6 -82 6h-25q-115 0 -213 -33.5t-197.5 -127t-99.5 -193.5 q0 -29 12.5 -48.5t38.5 -19.5q86 0 196 143.5t122 241.5q27 -8 39 -20t12 -37q0 -33 -19.5 -65.5t-52.5 -69.5q27 0 44.5 5t54.5 17q-31 -74 -49.5 -121t-18.5 -55q0 -18 21 -18q8 0 31.5 11t33.5 15l14 -18q-41 -27 -98 -46.5t-123 -33.5v12q0 25 28 96.5t50 116.5 q-113 -111 -210 -169t-155 -58q-29 0 -47 20.5t-18 49.5z" />
<glyph unicode="&#xab;" horiz-adv-x="841" d="M90 455l4 4q76 45 133.5 88t149.5 117q20 20 37.5 35.5t22.5 20.5t50 48t57.5 45t62 14.5t59.5 10.5q-39 -55 -237 -195.5t-200 -146.5l-4 -35q0 -23 94.5 -189t104.5 -215l-92 -51l-17 -8q-16 35 -39.5 96.5t-43 103.5t-65.5 122.5t-77 134.5zM391 457q127 78 214 149.5 t206 190.5l18 20l5 2q10 0 47 7.5t55 7.5l8 4q-88 -92 -118.5 -122t-96.5 -77q-86 -59 -172 -117q-29 -23 -29 -53q0 -23 91.5 -186.5t105.5 -219.5l-8 -6l-74 -43l-20 -12q-49 123 -103.5 231.5t-124.5 215.5z" />
<glyph unicode="&#xac;" horiz-adv-x="976" d="M76 467v74h864v-541h-168v467h-696z" />
<glyph unicode="&#xad;" horiz-adv-x="294" d="M-2 332l63 129h138q37 2 53 2h31q18 0 36.5 6t28.5 10l23 10l-11 -20q-14 -31 -45.5 -60.5t-60.5 -27.5q-16 -8 -43 -8q-14 0 -49 4t-53 4q-59 0 -82 -31l-11 -18h-18z" />
<glyph unicode="&#xb0;" horiz-adv-x="976" d="M655 958q0 61 64.5 118t126.5 57q29 0 45 -16.5t16 -47.5q0 -63 -61.5 -120.5t-126.5 -57.5q-31 0 -47.5 18.5t-16.5 48.5zM711 971q0 -37 41 -37q35 0 66.5 38t31.5 75q0 47 -33 47q-37 0 -71.5 -43t-34.5 -80z" />
<glyph unicode="&#xb1;" d="M16 121l23 57h676l-23 -57h-676zM174 551l23 57h309l121 312h53l-119 -312h311l-22 -57h-309l-119 -307h-55l116 307h-309z" />
<glyph unicode="&#xb4;" horiz-adv-x="976" d="M690 850q18 125 78.5 217t169.5 123l39 -86q-92 -33 -162 -97.5t-125 -156.5z" />
<glyph unicode="&#xb5;" horiz-adv-x="931" d="M-197 -317q0 18 20.5 62t37.5 65q6 31 36.5 88t59.5 111t56.5 114.5t71.5 166t116.5 306.5t120.5 330h124l-210 -580q-14 -43 -31 -101.5t-17 -82.5q0 -47 39 -75t88 -28q70 0 146 34t182 136l254 697h123l-252 -695q-8 -20 -19.5 -55t-11.5 -47q0 -23 17.5 -36t44.5 -13 q8 0 29.5 8t33.5 14l-12 -28l-182 -94h-6q-23 0 -41.5 20t-18.5 43q0 25 7 56.5t14 52.5q-150 -102 -220.5 -141.5t-171.5 -39.5q-72 0 -113.5 38t-41.5 108q0 27 2 33l-60 -162q-29 -131 -62.5 -250t-100.5 -119q-27 0 -39.5 18.5t-12.5 45.5z" />
<glyph unicode="&#xb8;" horiz-adv-x="976" d="M133 -352q0 37 23.5 66.5t60.5 43.5q-2 -2 -10 -28.5t-8 -32.5q0 -35 11 -53.5t46 -18.5q53 0 98 57.5t45 112.5q0 72 -80 72q-29 0 -50 -10.5t-52 -32.5l80 176h45l-47 -100q39 14 72 14q61 0 84.5 -18.5t23.5 -77.5q0 -84 -89 -165t-175 -81q-33 0 -55.5 20.5 t-22.5 55.5z" />
<glyph unicode="&#xba;" horiz-adv-x="731" d="M197 604l53 117h477q53 0 76.5 3.5t52.5 23.5q-37 -74 -60.5 -88.5t-111.5 -14.5h-412q-29 0 -39 -8q-12 -16 -22 -33h-14zM379 918q0 160 179 295t345 135q39 0 39 -37l-10 -27q-12 2 -37 2h-35q-139 0 -221 -53t-123 -145.5t-41 -143.5q0 -82 82 -82q78 0 163 101.5 t85 183.5q0 53 -47 53q-37 0 -61.5 -24.5t-45.5 -67.5l-6 18q0 53 57.5 93.5t110.5 40.5q37 0 64.5 -26t27.5 -63q0 -117 -146.5 -237.5t-264.5 -120.5q-47 0 -81 27.5t-34 77.5z" />
<glyph unicode="&#xbb;" horiz-adv-x="841" d="M2 0q35 39 63.5 70.5t67.5 65.5t103.5 78t122 82t57.5 73q0 23 -19.5 58.5t-86 150t-91.5 194.5l12 8q23 8 48.5 24.5t42.5 29.5q47 -117 83.5 -195t90.5 -162l55 -92l2 -6q-125 -80 -168 -107.5t-109.5 -94t-158.5 -157.5l-8 -2q-14 0 -52.5 -8t-48.5 -8zM276 -4 q43 59 239 195.5t200 147.5t4 34q0 16 -12.5 42.5t-27.5 51.5t-40 69t-62.5 118.5t-56.5 125.5l90 49l19 9l2 -7q8 -14 34.5 -80.5t59.5 -134t58.5 -117.5t70.5 -118q-6 -6 -94 -64.5t-161 -116t-181 -169.5l-4 -6l-8 -2q-41 -6 -82 -14.5t-48 -12.5z" />
<glyph unicode="&#xbf;" horiz-adv-x="759" d="M8 258q0 61 17.5 122.5t49 123t68.5 106.5t81 80t94.5 62.5t120 54.5t161.5 63q129 61 129 127q0 39 -37 50.5t-59 11.5l-8 -2q12 27 28.5 42t44.5 15q33 0 52.5 -23.5t19.5 -60.5q0 -35 -8 -59.5t-46 -97t-114 -114.5t-233.5 -92.5t-229 -124t-71.5 -198.5 q0 -117 84 -167t208 -50q104 0 157.5 24.5t92.5 110.5l15 31l32 -2q-55 -123 -88 -246q-70 -20 -127 -31.5t-118 -11.5q-137 0 -226.5 62.5t-89.5 193.5zM682 1264q0 31 18.5 51t49.5 20q47 0 47 -49q0 -25 -20.5 -45t-47.5 -20q-20 0 -33.5 11t-13.5 32z" />
<glyph unicode="&#xc0;" horiz-adv-x="1603" d="M-145 39l59 98q207 72 405.5 233.5t343 325.5t288 346.5t216 272.5t146.5 153l26 -24q-45 -53 -56 -92t-11 -117q0 -143 27.5 -310t111.5 -462t148 -295q12 0 36.5 23.5t30.5 29.5l27 -24q-27 -29 -54.5 -57.5t-29.5 -35.5q-4 -2 -45 -51t-60 -69q-127 279 -210 559 t-83 522q0 49 6.5 106.5t8.5 90.5q-72 -70 -148.5 -167.5t-157.5 -199.5t-143 -166q14 4 31.5 4h28.5h59q55 0 188.5 -4t143.5 -4q-23 -51 -42.5 -129t-29.5 -117h-37q14 41 15 86q0 43 -31 52.5t-88 9.5h-207l-129 -6q-49 -47 -96 -95l-17 -16q-115 -113 -221 -201 t-227 -164q39 0 81 2.5t85 4.5q63 0 123.5 -1t153.5 -12.5t172 -20.5t138 -9q317 0 361 313q35 -23 35 -57q0 -92 -103.5 -188.5t-201 -136.5t-193.5 -40q-100 0 -324.5 21.5t-312.5 21.5l-225 -4h-12zM1167 1712l50 84q119 -31 178 -119t73 -219q-57 92 -130.5 156.5 t-170.5 97.5z" />
<glyph unicode="&#xc1;" horiz-adv-x="1603" d="M-145 39l59 98q207 72 405.5 233.5t343 325.5t288 346.5t216 272.5t146.5 153l26 -24q-45 -53 -56 -92t-11 -117q0 -143 27.5 -310t111.5 -462t148 -295q12 0 36.5 23.5t30.5 29.5l27 -24q-27 -29 -54.5 -57.5t-29.5 -35.5q-4 -2 -45 -51t-60 -69q-127 279 -210 559 t-83 522q0 49 6.5 106.5t8.5 90.5q-72 -70 -148.5 -167.5t-157.5 -199.5t-143 -166l451 -4q-23 -51 -42.5 -129t-29.5 -117h-37q14 41 15 86q0 43 -31 52.5t-88 9.5h-207l-129 -6q-49 -47 -96 -95l-17 -16q-115 -113 -221 -201t-227 -164q39 0 81 2.5t85 4.5q63 0 123.5 -1 t153.5 -12.5t172 -20.5t138 -9q317 0 361 313q35 -23 35 -57q0 -92 -103.5 -188.5t-201 -136.5t-193.5 -40q-100 0 -324.5 21.5t-312.5 21.5l-225 -4h-12zM1180 1458q12 129 71.5 218t175.5 120l54 -84q-96 -31 -169 -94.5t-132 -159.5z" />
<glyph unicode="&#xc2;" horiz-adv-x="1603" d="M-145 39l59 98q207 72 405.5 233.5t343 325.5t288 346.5t216 272.5t146.5 153l26 -24q-45 -53 -56 -92t-11 -117q0 -143 27.5 -310t111.5 -462t148 -295q12 0 36.5 23.5t30.5 29.5l27 -24q-27 -29 -54.5 -57.5t-29.5 -35.5q-4 -2 -45 -51t-60 -69q-127 279 -210 559 t-83 522q0 49 6.5 106.5t8.5 90.5q-72 -70 -148.5 -167.5t-157.5 -199.5t-143 -166l451 -4q-23 -51 -42.5 -129t-29.5 -117h-37q14 41 15 86q0 43 -31 52.5t-88 9.5h-207l-129 -6q-49 -47 -96 -95l-17 -16q-115 -113 -221 -201t-227 -164q39 0 81 2.5t85 4.5q63 0 123.5 -1 t153.5 -12.5t172 -20.5t138 -9q317 0 361 313q35 -23 35 -57q0 -92 -103.5 -188.5t-201 -136.5t-193.5 -40q-100 0 -324.5 21.5t-312.5 21.5l-225 -4h-12zM1126 1499q23 25 62 54.5t84 66.5t101.5 102.5t90.5 108.5q0 -35 -1 -72t-1 -78t2.5 -78.5t8.5 -66.5l-68 -45 l-31 -33l2 12v54v28q0 37 -5 61.5t-23 24.5q-8 0 -15.5 -6t-23 -21.5l-47 -47t-56.5 -50.5q-31 -12 -45 -22h-8q-10 0 -27 8z" />
<glyph unicode="&#xc3;" horiz-adv-x="1603" d="M-145 39l59 98q207 72 405.5 233.5t343 325.5t288 346.5t216 272.5t146.5 153l26 -24q-45 -53 -56 -92t-11 -117q0 -143 27.5 -310t111.5 -462t148 -295q12 0 36.5 23.5t30.5 29.5l27 -24q-27 -29 -54.5 -57.5t-29.5 -35.5q-4 -2 -45 -51t-60 -69q-127 279 -210 559 t-83 522q0 49 6.5 106.5t8.5 90.5q-72 -70 -148.5 -167.5t-157.5 -199.5t-143 -166q14 4 31.5 4h28.5h59q55 0 188.5 -4t143.5 -4q-23 -51 -42.5 -129t-29.5 -117h-37q14 41 15 86q0 43 -31 52.5t-88 9.5h-207l-129 -6q-49 -47 -96 -95l-17 -16q-115 -113 -221 -201 t-227 -164q39 0 81 2.5t85 4.5q63 0 123.5 -1t153.5 -12.5t172 -20.5t138 -9q317 0 361 313q35 -23 35 -57q0 -92 -103.5 -188.5t-201 -136.5t-193.5 -40q-100 0 -324.5 21.5t-312.5 21.5l-225 -4h-12zM1116 1518q27 82 55.5 125t94.5 43q37 0 107.5 -18.5t92.5 -18.5 q66 0 82 63l21 -4q-25 -82 -54.5 -122t-99.5 -40q-35 0 -105.5 17.5t-97.5 17.5t-51 -19.5t-20 -41.5l-4 -7z" />
<glyph unicode="&#xc4;" horiz-adv-x="1603" d="M-145 39l59 98q207 72 405.5 233.5t343 325.5t288 346.5t216 272.5t146.5 153l26 -24q-45 -53 -56 -92t-11 -117q0 -143 27.5 -310t111.5 -462t148 -295q12 0 36.5 23.5t30.5 29.5l27 -24q-27 -29 -54.5 -57.5t-29.5 -35.5q-4 -2 -45 -51t-60 -69q-127 279 -210 559 t-83 522q0 49 6.5 106.5t8.5 90.5q-72 -70 -148.5 -167.5t-157.5 -199.5t-143 -166l451 -4q-23 -51 -42.5 -129t-29.5 -117h-37q14 41 15 86q0 43 -31 52.5t-88 9.5h-207l-129 -6q-49 -47 -96 -95l-17 -16q-115 -113 -221 -201t-227 -164q39 0 81 2.5t85 4.5q63 0 123.5 -1 t153.5 -12.5t172 -20.5t138 -9q317 0 361 313q35 -23 35 -57q0 -92 -103.5 -188.5t-201 -136.5t-193.5 -40q-100 0 -324.5 21.5t-312.5 21.5l-225 -4h-12zM1161 1597q0 29 18.5 49.5t47.5 20.5q47 0 47 -45q0 -27 -20.5 -47.5t-47.5 -20.5q-45 0 -45 43zM1368 1597 q0 29 18.5 49.5t47.5 20.5q47 0 47 -45q0 -27 -20.5 -47.5t-47.5 -20.5q-45 0 -45 43z" />
<glyph unicode="&#xc5;" horiz-adv-x="1603" d="M-145 39l59 98q207 72 405.5 233.5t343 325.5t288 346.5t216 272.5t146.5 153l26 -24q-45 -53 -56 -92t-11 -117q0 -143 27.5 -310t111.5 -462t148 -295q12 0 36.5 23.5t30.5 29.5l27 -24q-27 -29 -54.5 -57.5t-29.5 -35.5q-4 -2 -45 -51t-60 -69q-127 279 -210 559 t-83 522q0 49 6.5 106.5t8.5 90.5q-72 -70 -148.5 -167.5t-157.5 -199.5t-143 -166l451 -4q-23 -51 -42.5 -129t-29.5 -117h-37q14 41 15 86q0 43 -31 52.5t-88 9.5h-207l-129 -6q-49 -47 -96 -95l-17 -16q-115 -113 -221 -201t-227 -164q39 0 81 2.5t85 4.5q63 0 123.5 -1 t153.5 -12.5t172 -20.5t138 -9q317 0 361 313q35 -23 35 -57q0 -92 -103.5 -188.5t-201 -136.5t-193.5 -40q-100 0 -324.5 21.5t-312.5 21.5l-225 -4h-12zM1247 1587q0 61 64.5 117.5t126.5 56.5q35 0 48 -20.5t13 -57.5q0 -51 -67.5 -106t-120.5 -55q-63 0 -64 65z M1303 1599q0 -35 40 -34q37 0 68 36.5t31 75.5q0 47 -35 47t-69.5 -43t-34.5 -82z" />
<glyph unicode="&#xc6;" horiz-adv-x="2199" d="M-147 31q23 35 36 58.5t21 45.5q225 76 427 249t395.5 406.5t367.5 442.5l59 67q2 2 10.5 12.5t18.5 24.5l8 11l320 -2h428h24q39 0 74 6q-25 -82 -45.5 -158t-20.5 -82l-4 -10h-39q16 43 17 86q0 37 -21.5 50t-62.5 13h-598q-2 -8 -2 -26v-25q0 -102 12 -181t31 -175 h487l-27 -105h-198q113 -82 112 -215q0 -68 -29.5 -142.5t-76.5 -119.5q66 -53 169 -98t179 -45q139 0 221 94t103 242q20 -10 31.5 -33.5t11.5 -50.5q0 -80 -93.5 -165t-160 -121t-105.5 -58.5t-53 -22.5q-61 0 -191 63.5t-200 114.5q-129 -96 -344 -139t-422 -43 q-94 0 -294 17.5t-267 17.5l-131 4q-45 0 -88 -1t-90 -7zM74 139q29 0 84 5.5t71 5.5q55 0 190.5 -11.5t178.5 -11.5q215 -25 432 -47q123 0 231.5 33.5t178.5 111.5q-98 94 -156.5 227.5t-83.5 286.5h-450q-106 -113 -221 -231.5t-171.5 -162.5t-166 -119.5t-117.5 -86.5z M838 844h348q-14 92 -15 198v60q0 84 9 155l-23 -26l-115 -133q-12 -14 -41.5 -56.5t-46.5 -54.5zM1331 739q18 -121 69.5 -239.5t125.5 -192.5q67 86 67 203q0 115 -72.5 172t-189.5 57z" />
<glyph unicode="&#xc7;" horiz-adv-x="1492" d="M131 428q0 104 41 222t152.5 297t391 316.5t599.5 137.5q188 0 326.5 -72t138.5 -242q0 -182 -164 -290.5t-356 -108.5q-113 0 -378.5 62.5t-367.5 62.5q-25 0 -49.5 -6t-46.5 -16q27 27 54.5 61.5t53.5 69.5l66 4l90 -6q23 -2 69 -11.5t48 -9.5l75 -18 q125 -35 259.5 -71t255.5 -36q127 0 224 70.5t97 191.5q0 164 -162 237t-346 73q-381 0 -673.5 -252t-292.5 -629q0 -172 102 -276.5t278 -104.5q199 0 307.5 163t108.5 369l-2 33q29 -14 40 -44t11 -68q0 -139 -120.5 -300t-204.5 -199t-132.5 -46t-88.5 -8l-39 -90 q37 14 84 14q43 0 73.5 -17.5t30.5 -87.5l-6 -22q-25 -88 -103.5 -160t-168.5 -72q-35 0 -58.5 21.5t-23.5 58.5q0 84 90 115l-12.5 -37.5t-8.5 -34.5q0 -68 60 -67q55 0 103 60.5t48 117.5q0 76 -86 76q-29 0 -52.5 -11.5t-51.5 -33.5l75 170q-176 23 -267 142.5t-91 301.5 z" />
<glyph unicode="&#xc8;" horiz-adv-x="2248" d="M182 532q0 190 106.5 336t305.5 277t383 164.5t514 33.5l350 3q61 0 156.5 3t97.5 3l-27 -76q0 -4 -20 -79t-20 -81l-7 -14h-36q6 23 11 47.5t5 42.5q0 35 -20.5 46t-55.5 11h-39h-254q-23 -90 -46 -179t-38 -114q-63 -158 -177 -248t-292 -145q104 -33 187.5 -81 t230.5 -146q29 -14 45.5 -23.5t22.5 -17.5q51 61 76.5 126.5t25.5 139.5q0 98 -41 171t-127 110h348l-28 -107h-164q88 -88 88 -211q0 -70 -31 -138.5t-82 -127.5q150 -84 210.5 -112.5t137.5 -28.5q141 0 232.5 97t91.5 239q20 -12 29.5 -32.5t9.5 -49.5q0 -90 -89 -165 t-147.5 -111t-107.5 -64.5t-58 -28.5q-59 0 -164.5 47t-155.5 75t-87 50q-119 -86 -288 -127t-339 -41q-297 0 -510 126t-213 400zM293 569q0 -121 70.5 -256t220 -200.5t352.5 -65.5q156 0 287 38t254 124q-141 92 -258 157.5t-247 108.5t-265 43q-20 0 -44 -4t-51 -10 q25 25 45.5 53.5t30.5 58.5q8 4 34 5.5t34 1.5q35 0 118.5 -11.5t108.5 -11.5q170 0 277.5 93t167 234.5t100.5 321.5h-273q-94 0 -154.5 -3t-235.5 -24.5t-373.5 -200.5t-198.5 -452zM1698 1712l51 84q117 -31 176.5 -119t73.5 -219q-55 90 -130 155.5t-171 98.5z" />
<glyph unicode="&#xc9;" horiz-adv-x="2248" d="M182 532q0 190 106.5 336t305.5 277t383 164.5t514 33.5l350 3q61 0 156.5 3t97.5 3l-27 -76q0 -4 -20 -79t-20 -81l-7 -14h-36q6 23 11 47.5t5 42.5q0 35 -20.5 46t-55.5 11h-39h-254q-23 -90 -46 -179t-38 -114q-63 -158 -177 -248t-292 -145q104 -33 187.5 -81 t230.5 -146q29 -14 45.5 -23.5t22.5 -17.5q51 61 76.5 126.5t25.5 139.5q0 98 -41 171t-127 110h348l-28 -107h-164q88 -88 88 -211q0 -70 -31 -138.5t-82 -127.5q150 -84 210.5 -112.5t137.5 -28.5q141 0 232.5 97t91.5 239q20 -12 29.5 -32.5t9.5 -49.5q0 -90 -89 -165 t-147.5 -111t-107.5 -64.5t-58 -28.5q-59 0 -164.5 47t-155.5 75t-87 50q-119 -86 -288 -127t-339 -41q-297 0 -510 126t-213 400zM293 569q0 -121 70.5 -256t220 -200.5t352.5 -65.5q156 0 287 38t254 124q-141 92 -258 157.5t-247 108.5t-265 43q-20 0 -44 -4t-51 -10 q25 25 45.5 53.5t30.5 58.5q8 4 34 5.5t34 1.5q35 0 118.5 -11.5t108.5 -11.5q170 0 277.5 93t167 234.5t100.5 321.5h-273q-94 0 -154.5 -3t-235.5 -24.5t-373.5 -200.5t-198.5 -452zM1626 1458q14 129 73.5 218t176.5 120l53 -84q-96 -31 -168.5 -94.5t-134.5 -159.5z" />
<glyph unicode="&#xca;" horiz-adv-x="2248" d="M182 532q0 190 106.5 336t305.5 277t383 164.5t514 33.5l350 3q61 0 156.5 3t97.5 3l-27 -76q0 -4 -20 -79t-20 -81l-7 -14h-36q6 23 11 47.5t5 42.5q0 35 -20.5 46t-55.5 11h-39h-254q-23 -90 -46 -179t-38 -114q-63 -158 -177 -248t-292 -145q104 -33 187.5 -81 t230.5 -146q29 -14 45.5 -23.5t22.5 -17.5q51 61 76.5 126.5t25.5 139.5q0 98 -41 171t-127 110h348l-28 -107h-164q88 -88 88 -211q0 -70 -31 -138.5t-82 -127.5q150 -84 210.5 -112.5t137.5 -28.5q141 0 232.5 97t91.5 239q20 -12 29.5 -32.5t9.5 -49.5q0 -90 -89 -165 t-147.5 -111t-107.5 -64.5t-58 -28.5q-59 0 -164.5 47t-155.5 75t-87 50q-119 -86 -288 -127t-339 -41q-297 0 -510 126t-213 400zM293 569q0 -121 70.5 -256t220 -200.5t352.5 -65.5q156 0 287 38t254 124q-141 92 -258 157.5t-247 108.5t-265 43q-20 0 -44 -4t-51 -10 q25 25 45.5 53.5t30.5 58.5q8 4 34 5.5t34 1.5q35 0 118.5 -11.5t108.5 -11.5q170 0 277.5 93t167 234.5t100.5 321.5h-273q-94 0 -154.5 -3t-235.5 -24.5t-373.5 -200.5t-198.5 -452zM1642 1499q25 27 79.5 68t76 59.5t65.5 64.5t117 140q0 -35 -1 -72t-1 -78t2.5 -78.5 t8.5 -66.5l-66 -45q-6 -8 -15.5 -16.5t-17.5 -16.5l2 12v54v39q0 35 -6 55t-22 20q-8 0 -15.5 -6t-23 -21.5l-47 -47t-54.5 -50.5q-33 -12 -47 -22h-8q-10 0 -27 8z" />
<glyph unicode="&#xcb;" horiz-adv-x="2248" d="M182 532q0 190 106.5 336t305.5 277t383 164.5t514 33.5l350 3q61 0 156.5 3t97.5 3l-27 -76q0 -4 -20 -79t-20 -81l-7 -14h-36q6 23 11 47.5t5 42.5q0 35 -20.5 46t-55.5 11h-39h-254q-23 -90 -46 -179t-38 -114q-63 -158 -177 -248t-292 -145q104 -33 187.5 -81 t230.5 -146q29 -14 45.5 -23.5t22.5 -17.5q51 61 76.5 126.5t25.5 139.5q0 98 -41 171t-127 110h348l-28 -107h-164q88 -88 88 -211q0 -70 -31 -138.5t-82 -127.5q150 -84 210.5 -112.5t137.5 -28.5q141 0 232.5 97t91.5 239q20 -12 29.5 -32.5t9.5 -49.5q0 -90 -89 -165 t-147.5 -111t-107.5 -64.5t-58 -28.5q-59 0 -164.5 47t-155.5 75t-87 50q-119 -86 -288 -127t-339 -41q-297 0 -510 126t-213 400zM293 569q0 -121 70.5 -256t220 -200.5t352.5 -65.5q156 0 287 38t254 124q-141 92 -258 157.5t-247 108.5t-265 43q-20 0 -44 -4t-51 -10 q25 25 45.5 53.5t30.5 58.5q8 4 34 5.5t34 1.5q35 0 118.5 -11.5t108.5 -11.5q170 0 277.5 93t167 234.5t100.5 321.5h-273q-94 0 -154.5 -3t-235.5 -24.5t-373.5 -200.5t-198.5 -452zM1657 1597q0 29 18.5 49.5t48.5 20.5q45 0 45 -45q0 -27 -18 -47.5t-47 -20.5 q-18 0 -32.5 12.5t-14.5 30.5zM1864 1597q0 29 18.5 49.5t48.5 20.5q45 0 45 -45q0 -27 -20.5 -47.5t-44.5 -20.5q-18 0 -32.5 12.5t-14.5 30.5z" />
<glyph unicode="&#xcc;" horiz-adv-x="1808" d="M178 594q0 203 134 329t339 126q195 0 383 -123q94 51 205 51q160 0 230.5 -106.5t70.5 -272.5q0 -53 -29.5 -125t-68.5 -141q-129 168 -232.5 278.5t-251.5 223.5q-72 -68 -103.5 -148t-31.5 -184q0 -90 25 -180q-41 29 -65.5 80t-24.5 102q0 100 45 187t125 163 q-90 68 -169 102.5t-177 34.5q-152 0 -251.5 -101.5t-99.5 -254.5q0 -262 222.5 -400.5t500.5 -138.5q309 0 523.5 160t345.5 405.5t229 567.5h-766q-88 0 -130 -16.5t-71 -86.5l-36 9l24 59q39 82 64 158h1026q-94 -297 -203 -526.5t-275.5 -425t-333.5 -271.5 t-274.5 -101.5t-214.5 -25.5q-283 0 -483.5 157.5t-200.5 434.5zM1069 901q106 -78 204.5 -183.5t199.5 -234.5q16 53 21 80t5 60q0 125 -84 217t-209 92q-47 0 -68.5 -6t-68.5 -25zM1509 1712l52 84q117 -31 176 -119t73 -219q-55 90 -129.5 155.5t-171.5 98.5z" />
<glyph unicode="&#xcd;" horiz-adv-x="1808" d="M178 594q0 203 134 329t339 126q195 0 383 -123q94 51 205 51q160 0 230.5 -106.5t70.5 -272.5q0 -53 -29.5 -125t-68.5 -141q-129 168 -232.5 278.5t-251.5 223.5q-72 -68 -103.5 -148t-31.5 -184q0 -90 25 -180q-41 29 -65.5 80t-24.5 102q0 100 45 187t125 163 q-90 68 -169 102.5t-177 34.5q-152 0 -251.5 -101.5t-99.5 -254.5q0 -262 222.5 -400.5t500.5 -138.5q309 0 523.5 160t345.5 405.5t229 567.5h-766q-88 0 -130 -16.5t-71 -86.5l-36 9l24 59q39 82 64 158h1026q-94 -297 -203 -526.5t-275.5 -425t-333.5 -271.5 t-274.5 -101.5t-214.5 -25.5q-283 0 -483.5 157.5t-200.5 434.5zM1069 901q106 -78 204.5 -183.5t199.5 -234.5q16 53 21 80t5 60q0 125 -84 217t-209 92q-47 0 -68.5 -6t-68.5 -25zM1575 1458q14 129 73.5 218t176.5 120l53 -84q-96 -31 -169 -94.5t-134 -159.5z" />
<glyph unicode="&#xce;" horiz-adv-x="1808" d="M178 594q0 203 134 329t339 126q195 0 383 -123q94 51 205 51q160 0 230.5 -106.5t70.5 -272.5q0 -53 -29.5 -125t-68.5 -141q-129 168 -232.5 278.5t-251.5 223.5q-72 -68 -103.5 -148t-31.5 -184q0 -90 25 -180q-41 29 -65.5 80t-24.5 102q0 100 45 187t125 163 q-90 68 -169 102.5t-177 34.5q-152 0 -251.5 -101.5t-99.5 -254.5q0 -262 222.5 -400.5t500.5 -138.5q309 0 523.5 160t345.5 405.5t229 567.5h-766q-88 0 -130 -16.5t-71 -86.5l-36 9l24 59q39 82 64 158h1026q-94 -297 -203 -526.5t-275.5 -425t-333.5 -271.5 t-274.5 -101.5t-214.5 -25.5q-283 0 -483.5 157.5t-200.5 434.5zM1069 901q106 -78 204.5 -183.5t199.5 -234.5q16 53 21 80t5 60q0 125 -84 217t-209 92q-47 0 -68.5 -6t-68.5 -25zM1483 1499q23 25 61.5 54.5t83.5 66.5t101.5 102.5t91.5 108.5q0 -35 -1 -72t-1 -78 t2 -78.5t8 -66.5l-68 -45l-30 -33l2 12v54v39q0 35 -6.5 55t-22.5 20q-8 0 -15.5 -6t-22.5 -21.5t-47 -47t-54 -50.5q-33 -12 -47 -22h-9q-10 0 -26 8z" />
<glyph unicode="&#xcf;" horiz-adv-x="1808" d="M178 594q0 203 134 329t339 126q195 0 383 -123q94 51 205 51q160 0 230.5 -106.5t70.5 -272.5q0 -53 -29.5 -125t-68.5 -141q-129 168 -232.5 278.5t-251.5 223.5q-72 -68 -103.5 -148t-31.5 -184q0 -90 25 -180q-41 29 -65.5 80t-24.5 102q0 100 45 187t125 163 q-90 68 -169 102.5t-177 34.5q-152 0 -251.5 -101.5t-99.5 -254.5q0 -262 222.5 -400.5t500.5 -138.5q309 0 523.5 160t345.5 405.5t229 567.5h-766q-88 0 -130 -16.5t-71 -86.5l-36 9l24 59q39 82 64 158h1026q-94 -297 -203 -526.5t-275.5 -425t-333.5 -271.5 t-274.5 -101.5t-214.5 -25.5q-283 0 -483.5 157.5t-200.5 434.5zM1069 901q106 -78 204.5 -183.5t199.5 -234.5q16 53 21 80t5 60q0 125 -84 217t-209 92q-47 0 -68.5 -6t-68.5 -25zM1540 1597q0 29 18.5 49.5t47.5 20.5q47 0 47 -45q0 -27 -20.5 -47.5t-47.5 -20.5 q-45 0 -45 43zM1718 1597q0 29 18.5 49.5t47.5 20.5q47 0 47 -45q0 -27 -20.5 -47.5t-47.5 -20.5q-45 0 -45 43z" />
<glyph unicode="&#xd1;" horiz-adv-x="2367" d="M139 473q0 219 143.5 345t364.5 126q154 0 295 -74q133 -82 266 -161q23 0 65 25.5t44 27.5l18 -31l-65 -43q-35 -14 -76 -45t-66 -49q-125 127 -268 203.5t-303 76.5q-156 0 -259 -93t-103 -246q0 -209 156.5 -332t371.5 -123q285 0 462 228.5t255 547.5 q-59 49 -171 154.5t-122 130.5q-16 8 -63.5 78.5t-47.5 91.5q0 23 39 102.5t66 128.5l35 -12q-12 -25 -24.5 -59.5t-12.5 -57.5q0 -59 126 -197.5t216 -211.5q16 74 45.5 117.5t93.5 76.5l-76 -254q109 -86 208 -162.5t208 -156.5q72 240 158 399.5t236.5 262t377.5 102.5 q41 0 74 -5.5t82 -17.5l-76 -260l-35 6q4 23 8 46.5t4 41.5q0 43 -39.5 61.5t-140.5 18.5q-260 0 -402.5 -196.5t-199.5 -489.5q68 -47 137 -92q25 -20 49 -41l5 -8l6 -4q25 -47 37 -73t12 -67q0 -84 -56.5 -193.5t-132.5 -109.5q-82 0 -117.5 83t-35.5 177q0 55 5 104.5 t17 118.5q-221 152 -430 318q-43 -129 -65.5 -188.5t-105.5 -198.5t-274.5 -280.5t-412.5 -141.5q-219 0 -362.5 129t-143.5 346zM1802 1518q27 82 55.5 125t94.5 43q29 0 100.5 -18.5t99.5 -18.5q66 0 82 63l23 -4q-27 -82 -56.5 -122t-97.5 -40q-33 0 -105.5 17.5 t-96.5 17.5q-27 0 -52.5 -19.5t-21.5 -41.5l-4 -7zM1972 338q0 -92 21.5 -173t91.5 -81q47 0 70.5 39t23.5 90q0 76 -48 125t-151 123q-4 -27 -6 -40t-2 -38v-45z" />
<glyph unicode="&#xd2;" horiz-adv-x="1759" d="M188 537q0 319 247 521t466 250t334 57t233 9q47 0 82 -4t117 -16l-90 -246q156 -47 236.5 -125.5t80.5 -230.5q0 -168 -75.5 -298t-222 -243t-322.5 -170t-367 -57q-295 0 -507 136t-212 417zM324 563q0 -266 186 -401t465 -135q322 0 553 195.5t231 512.5 q0 113 -49 207t-149 119q-109 -258 -306.5 -426t-455.5 -168l-111 2q-45 0 -86 -23l6 11q43 88 68.5 111.5t79.5 23.5q20 0 71.5 -2t65.5 -2q248 0 383 117.5t229 369.5q-94 23 -176 23q-207 0 -353.5 -94.5t-193.5 -286.5q-8 16 -16 34.5t-8 43.5q0 178 192.5 260t397.5 82 q43 0 94 -6.5t80 -8.5l43 146q-74 12 -146.5 19t-142.5 7q-322 0 -549 -95t-299 -260t-88 -232.5t-16 -143.5zM1079 1712l51 84q119 -31 177.5 -118t72.5 -220q-55 90 -129.5 155.5t-171.5 98.5z" />
<glyph unicode="&#xd3;" horiz-adv-x="1759" d="M188 537q0 319 247 521t466 250t334 57t233 9q47 0 82 -4t117 -16l-90 -246q156 -47 236.5 -125.5t80.5 -230.5q0 -168 -75.5 -298t-222 -243t-322.5 -170t-367 -57q-295 0 -507 136t-212 417zM324 563q0 -266 186 -401t465 -135q322 0 553 195.5t231 512.5 q0 113 -49 207t-149 119q-109 -258 -306.5 -426t-455.5 -168l-111 2q-45 0 -86 -23l6 11q43 88 68.5 111.5t79.5 23.5q20 0 71.5 -2t65.5 -2q248 0 383 117.5t229 369.5q-94 23 -176 23q-207 0 -353.5 -94.5t-193.5 -286.5q-8 16 -16 34.5t-8 43.5q0 178 192.5 260t397.5 82 q43 0 94 -6.5t80 -8.5l43 146q-74 12 -146.5 19t-142.5 7q-322 0 -549 -95t-299 -260t-88 -232.5t-16 -143.5zM1278 1458q14 129 73.5 218t176.5 120l51 -84q-94 -31 -168 -94.5t-133 -159.5z" />
<glyph unicode="&#xd4;" horiz-adv-x="1759" d="M188 537q0 319 247 521t466 250t334 57t233 9q47 0 82 -4t117 -16l-90 -246q156 -47 236.5 -125.5t80.5 -230.5q0 -168 -75.5 -298t-222 -243t-322.5 -170t-367 -57q-295 0 -507 136t-212 417zM324 563q0 -266 186 -401t465 -135q322 0 553 195.5t231 512.5 q0 113 -49 207t-149 119q-109 -258 -306.5 -426t-455.5 -168l-111 2q-45 0 -86 -23l6 11q43 88 68.5 111.5t79.5 23.5q20 0 71.5 -2t65.5 -2q248 0 383 117.5t229 369.5q-94 23 -176 23q-207 0 -353.5 -94.5t-193.5 -286.5q-8 16 -16 34.5t-8 43.5q0 178 192.5 260t397.5 82 q43 0 94 -6.5t80 -8.5l43 146q-74 12 -146.5 19t-142.5 7q-322 0 -549 -95t-299 -260t-88 -232.5t-16 -143.5zM1253 1499q25 27 79 68t76 59.5t66 64.5t117 140q0 -35 -1 -72t-1 -78t2 -78.5t8 -66.5q-6 -2 -33.5 -22.5t-32.5 -25.5t-14.5 -13.5t-17.5 -16.5l2 12v54v39 q0 35 -6 55t-22 20q-8 0 -15.5 -6t-18.5 -17t-44 -45t-62 -57q-33 -12 -47 -22h-8q-10 0 -27 8z" />
<glyph unicode="&#xd5;" horiz-adv-x="1759" d="M188 537q0 319 247 521t466 250t334 57t233 9q47 0 82 -4t117 -16l-90 -246q156 -47 236.5 -125.5t80.5 -230.5q0 -168 -75.5 -298t-222 -243t-322.5 -170t-367 -57q-295 0 -507 136t-212 417zM324 563q0 -266 186 -401t465 -135q322 0 553 195.5t231 512.5 q0 113 -49 207t-149 119q-109 -258 -306.5 -426t-455.5 -168l-111 2q-45 0 -86 -23l6 11q43 88 68.5 111.5t79.5 23.5q20 0 71.5 -2t65.5 -2q248 0 383 117.5t229 369.5q-94 23 -176 23q-207 0 -353.5 -94.5t-193.5 -286.5q-8 16 -16 34.5t-8 43.5q0 178 192.5 260t397.5 82 q43 0 94 -6.5t80 -8.5l43 146q-74 12 -146.5 19t-142.5 7q-322 0 -549 -95t-299 -260t-88 -232.5t-16 -143.5zM1257 1518q27 82 55.5 125t94.5 43q29 0 100.5 -18.5t100.5 -18.5q66 0 82 63l22 -4q-27 -82 -56.5 -122t-96.5 -40q-33 0 -106 17.5t-97 17.5q-27 0 -52.5 -19.5 t-21.5 -41.5l-4 -7z" />
<glyph unicode="&#xd6;" horiz-adv-x="1759" d="M188 537q0 319 247 521t466 250t334 57t233 9q47 0 82 -4t117 -16l-90 -246q156 -47 236.5 -125.5t80.5 -230.5q0 -168 -75.5 -298t-222 -243t-322.5 -170t-367 -57q-295 0 -507 136t-212 417zM324 563q0 -266 186 -401t465 -135q322 0 553 195.5t231 512.5 q0 113 -49 207t-149 119q-109 -258 -306.5 -426t-455.5 -168l-111 2q-45 0 -86 -23l6 11q43 88 68.5 111.5t79.5 23.5q20 0 71.5 -2t65.5 -2q248 0 383 117.5t229 369.5q-94 23 -176 23q-207 0 -353.5 -94.5t-193.5 -286.5q-8 16 -16 34.5t-8 43.5q0 178 192.5 260t397.5 82 q43 0 94 -6.5t80 -8.5l43 146q-74 12 -146.5 19t-142.5 7q-322 0 -549 -95t-299 -260t-88 -232.5t-16 -143.5zM1139 1597q0 29 18.5 49.5t46.5 20.5q47 0 47 -45q0 -27 -20.5 -47.5t-44.5 -20.5q-18 0 -32.5 12.5t-14.5 30.5zM1346 1597q0 29 18 49.5t47 20.5q47 0 47 -45 q0 -27 -20.5 -47.5t-46.5 -20.5q-45 0 -45 43z" />
<glyph unicode="&#xd8;" horiz-adv-x="1759" d="M188 551q0 188 92.5 333.5t268.5 261.5t403.5 172t470.5 56h26.5t16.5 -2l103 168h39l-105 -168q80 -10 162 -18l-88 -246q156 -47 236.5 -125.5t80.5 -230.5q0 -164 -76.5 -297t-220 -245t-318.5 -169t-366 -57q-68 0 -121 6t-130 18l-95 -153h-35l101 161 q-213 55 -329 188.5t-116 346.5zM324 555q0 -176 88 -295t258 -180l248 399q-25 -6 -64 -8t-72 -2h-94q-45 0 -86 -23l4 7q33 88 66 112.5t100 24.5q25 0 53.5 -1t61.5 -1h24q41 0 78 6l307 504q-193 0 -329 -97.5t-185 -283.5q-8 16 -16 34.5t-8 43.5q0 170 185 256t378 86 l92 149q-27 0 -89 4t-69 4q-315 0 -540.5 -99t-308 -296t-82.5 -344zM700 70q135 -43 275 -43q319 0 551.5 196.5t232.5 511.5q0 113 -49 207t-149 119q-90 -221 -237.5 -367.5t-365.5 -206.5zM1026 600q184 25 295.5 148.5t183.5 326.5q-25 6 -73 14.5t-97 8.5zM1360 1137 q39 0 87 -6.5t75 -8.5l43 146q-23 6 -54.5 9t-62.5 7z" />
<glyph unicode="&#xd9;" horiz-adv-x="2408" d="M197 655q0 276 249.5 459.5t429 206t258 27t150.5 4.5h72q31 0 61.5 -1t63.5 -8q-27 -129 -65 -238.5t-122 -336.5q-78 -186 -149.5 -367.5t-71.5 -240.5q0 -41 30 -66.5t73 -25.5q90 0 288.5 110.5t296.5 196.5q20 55 91 310t152 407.5t173 211t136 76t81 17.5 q53 0 76.5 -35t23.5 -90q0 -137 -97 -293t-225 -288t-280 -261l-80 -303h289q158 0 255.5 116.5t97.5 276.5v31q-4 20 -5 31q31 -27 38 -52.5t7 -76.5q0 -154 -164.5 -292t-322.5 -138h-362q25 45 57.5 158.5t38.5 127.5q-156 -113 -338 -209t-303 -96q-61 0 -108.5 35 t-47.5 94q0 61 26.5 139t93 244t149.5 391.5t83 290.5q0 61 -54 79.5t-132 18.5q-348 0 -591 -191.5t-243 -531.5q0 -41 7.5 -91t13.5 -83q-51 43 -75.5 112t-24.5 144zM1688 1712l51 84q117 -31 176.5 -119t73.5 -219q-55 90 -130 155.5t-171 98.5zM1917 502 q170 135 325.5 352t155.5 389q0 43 -13 69.5t-50 26.5q-92 0 -177 -160.5t-127 -292.5t-114 -384z" />
<glyph unicode="&#xda;" horiz-adv-x="2408" d="M197 655q0 276 249.5 459.5t429 206t258 27t150.5 4.5h72q31 0 61.5 -1t63.5 -8q-27 -129 -65 -238.5t-122 -336.5q-78 -186 -149.5 -367.5t-71.5 -240.5q0 -41 30 -66.5t73 -25.5q90 0 288.5 110.5t296.5 196.5q20 55 91 310t152 407.5t173 211t136 76t81 17.5 q53 0 76.5 -35t23.5 -90q0 -137 -97 -293t-225 -288t-280 -261l-80 -303h289q158 0 255.5 116.5t97.5 276.5v31q-4 20 -5 31q31 -27 38 -52.5t7 -76.5q0 -154 -164.5 -292t-322.5 -138h-362q25 45 57.5 158.5t38.5 127.5q-156 -113 -338 -209t-303 -96q-61 0 -108.5 35 t-47.5 94q0 61 26.5 139t93 244t149.5 391.5t83 290.5q0 61 -54 79.5t-132 18.5q-348 0 -591 -191.5t-243 -531.5q0 -41 7.5 -91t13.5 -83q-51 43 -75.5 112t-24.5 144zM1686 1458q14 131 72.5 219t174.5 119l54 -84q-96 -31 -169 -94.5t-132 -159.5zM1917 502 q170 135 325.5 352t155.5 389q0 43 -13 69.5t-50 26.5q-92 0 -177 -160.5t-127 -292.5t-114 -384z" />
<glyph unicode="&#xdb;" horiz-adv-x="2408" d="M197 655q0 276 249.5 459.5t429 206t258 27t150.5 4.5h72q31 0 61.5 -1t63.5 -8q-27 -129 -65 -238.5t-122 -336.5q-78 -186 -149.5 -367.5t-71.5 -240.5q0 -41 30 -66.5t73 -25.5q90 0 288.5 110.5t296.5 196.5q20 55 91 310t152 407.5t173 211t136 76t81 17.5 q53 0 76.5 -35t23.5 -90q0 -137 -97 -293t-225 -288t-280 -261l-80 -303h289q158 0 255.5 116.5t97.5 276.5v31q-4 20 -5 31q31 -27 38 -52.5t7 -76.5q0 -154 -164.5 -292t-322.5 -138h-362q25 45 57.5 158.5t38.5 127.5q-156 -113 -338 -209t-303 -96q-61 0 -108.5 35 t-47.5 94q0 61 26.5 139t93 244t149.5 391.5t83 290.5q0 61 -54 79.5t-132 18.5q-348 0 -591 -191.5t-243 -531.5q0 -41 7.5 -91t13.5 -83q-51 43 -75.5 112t-24.5 144zM1661 1499q23 25 61.5 54.5t83.5 66.5t101.5 102.5t91.5 108.5q0 -35 -1 -72t-1 -78t2 -78.5t8 -66.5 l-68 -45q-4 -8 -15 -18.5t-15 -14.5l2 12v54v39q0 35 -6.5 55t-22.5 20q-8 0 -15 -6t-22.5 -21.5t-47.5 -47t-54 -50.5q-33 -12 -47 -22h-8q-10 0 -27 8zM1917 502q170 135 325.5 352t155.5 389q0 43 -13 69.5t-50 26.5q-92 0 -177 -160.5t-127 -292.5t-114 -384z" />
<glyph unicode="&#xdc;" horiz-adv-x="2408" d="M197 655q0 276 249.5 459.5t429 206t258 27t150.5 4.5h72q31 0 61.5 -1t63.5 -8q-27 -129 -65 -238.5t-122 -336.5q-78 -186 -149.5 -367.5t-71.5 -240.5q0 -41 30 -66.5t73 -25.5q90 0 288.5 110.5t296.5 196.5q20 55 91 310t152 407.5t173 211t136 76t81 17.5 q53 0 76.5 -35t23.5 -90q0 -137 -97 -293t-225 -288t-280 -261l-80 -303h289q158 0 255.5 116.5t97.5 276.5v31q-4 20 -5 31q31 -27 38 -52.5t7 -76.5q0 -154 -164.5 -292t-322.5 -138h-362q25 45 57.5 158.5t38.5 127.5q-156 -113 -338 -209t-303 -96q-61 0 -108.5 35 t-47.5 94q0 61 26.5 139t93 244t149.5 391.5t83 290.5q0 61 -54 79.5t-132 18.5q-348 0 -591 -191.5t-243 -531.5q0 -41 7.5 -91t13.5 -83q-51 43 -75.5 112t-24.5 144zM1714 1597q0 29 18.5 49.5t47.5 20.5q47 0 47 -45q0 -27 -20.5 -47.5t-47.5 -20.5q-45 0 -45 43z M1917 502q170 135 325.5 352t155.5 389q0 43 -13 69.5t-50 26.5q-92 0 -177 -160.5t-127 -292.5t-114 -384zM1921 1597q0 29 18.5 49.5t47.5 20.5q47 0 47 -45q0 -27 -20.5 -47.5t-47.5 -20.5q-45 0 -45 43z" />
<glyph unicode="&#xdf;" horiz-adv-x="714" d="M-510 -453q16 -6 50 -10t57 -4q186 0 281 181.5t200 500.5l129 395q16 51 35.5 112.5t23.5 68.5l4 14q39 143 135.5 259t235.5 202t252 86q33 0 46 -4t13 -27l-18 -59l-43 -144h-33q10 47 10 86q0 41 -27.5 49.5t-78.5 8.5l-29 -7q-121 -25 -187.5 -104.5t-101 -169.5 t-64.5 -171t-54 -157q25 35 45 58.5t36.5 34t92 37t91 57t15.5 39.5h8l129 -5l-6 -8q-18 -51 -37 -100l-2 -8l-69 6q-100 0 -180 -34t-80 -122q0 -29 20.5 -63.5t49 -51t53 -36t71.5 -53t78 -68.5t31 -98q0 -104 -90 -179t-197 -75q-57 0 -96 24.5t-39 79.5q0 8 4 30.5 t8 28.5q59 -98 176 -98q72 0 119 34t47 101q-25 55 -148.5 143.5t-140 122t-18.5 55t-2 50.5l-176 -559h-19q-35 4 -49 -9.5t-18 -21.5t-46 -108.5t-106.5 -208t-131 -148.5t-96.5 -51t-59 -10q-55 0 -70.5 22.5t-33.5 85.5z" />
<glyph unicode="&#xe0;" horiz-adv-x="731" d="M-20 90q0 236 241.5 443.5t416.5 248.5t259 41q33 1 33 -24q0 -8 -7.5 -26.5t-21.5 -49.5q-57 6 -113 12q-74 0 -138 -9t-173.5 -51t-247 -199t-137.5 -316q0 -33 13.5 -55.5t44.5 -22.5q23 0 37 6t93.5 62.5t180 217t135.5 320.5q25 -18 34 -39.5t9 -54.5 q0 -59 -24.5 -108.5t-73.5 -110.5q29 0 64.5 11t51.5 15q-51 -133 -100 -264q0 -27 27 -26q12 0 38.5 14t49.5 27l18 -27q-53 -39 -127 -69.5t-157 -51.5q0 57 34.5 149.5t81.5 192.5q-82 -104 -232.5 -225t-242.5 -121q-35 0 -51 25.5t-16 64.5zM475 1104l29 86 q113 -31 182 -122t92 -218q-59 96 -129.5 157.5t-173.5 96.5z" />
<glyph unicode="&#xe1;" horiz-adv-x="731" d="M-20 90q0 236 241.5 443.5t416.5 248.5t259 41q33 1 33 -24q0 -8 -7.5 -26.5t-21.5 -49.5q-57 6 -113 12q-74 0 -138 -9t-173.5 -51t-247 -199t-137.5 -316q0 -33 13.5 -55.5t44.5 -22.5q23 0 37 6t93.5 62.5t180 217t135.5 320.5q25 -18 34 -39.5t9 -54.5 q0 -59 -24.5 -108.5t-73.5 -110.5q29 0 64.5 11t51.5 15q-51 -133 -100 -264q0 -27 27 -26q12 0 38.5 14t49.5 27l18 -27q-53 -39 -127 -69.5t-157 -51.5q0 57 34.5 149.5t81.5 192.5q-82 -104 -232.5 -225t-242.5 -121q-35 0 -51 25.5t-16 64.5zM563 850q18 127 77.5 218 t170.5 122l37 -86q-90 -33 -161 -97.5t-124 -156.5z" />
<glyph unicode="&#xe2;" horiz-adv-x="731" d="M-20 90q0 236 241.5 443.5t416.5 248.5t259 41q33 1 33 -24q0 -8 -7.5 -26.5t-21.5 -49.5q-57 6 -113 12q-74 0 -138 -9t-173.5 -51t-247 -199t-137.5 -316q0 -33 13.5 -55.5t44.5 -22.5q23 0 37 6t93.5 62.5t180 217t135.5 320.5q25 -18 34 -39.5t9 -54.5 q0 -59 -24.5 -108.5t-73.5 -110.5q29 0 64.5 11t51.5 15q-51 -133 -100 -264q0 -27 27 -26q12 0 38.5 14t49.5 27l18 -27q-53 -39 -127 -69.5t-157 -51.5q0 57 34.5 149.5t81.5 192.5q-82 -104 -232.5 -225t-242.5 -121q-35 0 -51 25.5t-16 64.5zM451 903q14 16 54 49 t68.5 59.5t68.5 71.5t128 152q0 -88 1 -173t9 -120q-4 -2 -49 -37t-47 -41l2 13v55v29q0 33 -5 58t-22 25q-12 0 -77.5 -73.5t-108.5 -73.5q-14 4 -22 6z" />
<glyph unicode="&#xe3;" horiz-adv-x="731" d="M-20 90q0 236 241.5 443.5t416.5 248.5t259 41q33 1 33 -24q0 -8 -7.5 -26.5t-21.5 -49.5q-57 6 -113 12q-74 0 -138 -9t-173.5 -51t-247 -199t-137.5 -316q0 -33 13.5 -55.5t44.5 -22.5q23 0 37 6t93.5 62.5t180 217t135.5 320.5q25 -18 34 -39.5t9 -54.5 q0 -59 -24.5 -108.5t-73.5 -110.5q29 0 64.5 11t51.5 15q-51 -133 -100 -264q0 -27 27 -26q12 0 38.5 14t49.5 27l18 -27q-53 -39 -127 -69.5t-157 -51.5q0 57 34.5 149.5t81.5 192.5q-82 -104 -232.5 -225t-242.5 -121q-35 0 -51 25.5t-16 64.5zM453 922q18 74 44.5 112.5 t86.5 38.5q27 0 91 -15.5t91 -15.5q23 0 37 8.5t33 41.5l20 -2q-31 -94 -59.5 -120t-77.5 -26q-31 0 -90.5 16.5t-89.5 16.5q-27 0 -41.5 -12.5t-26.5 -40.5l-2 -6z" />
<glyph unicode="&#xe4;" horiz-adv-x="731" d="M-20 90q0 236 241.5 443.5t416.5 248.5t259 41q33 1 33 -24q0 -8 -7.5 -26.5t-21.5 -49.5q-57 6 -113 12q-74 0 -138 -9t-173.5 -51t-247 -199t-137.5 -316q0 -33 13.5 -55.5t44.5 -22.5q23 0 37 6t93.5 62.5t180 217t135.5 320.5q25 -18 34 -39.5t9 -54.5 q0 -59 -24.5 -108.5t-73.5 -110.5q29 0 64.5 11t51.5 15q-51 -133 -100 -264q0 -27 27 -26q12 0 38.5 14t49.5 27l18 -27q-53 -39 -127 -69.5t-157 -51.5q0 57 34.5 149.5t81.5 192.5q-82 -104 -232.5 -225t-242.5 -121q-35 0 -51 25.5t-16 64.5zM471 1004q0 29 19.5 48 t48.5 19q47 0 47 -45q0 -25 -21.5 -46.5t-46.5 -21.5q-47 0 -47 46zM678 1004q0 29 19.5 48t47.5 19q48 0 48 -45q0 -25 -21.5 -46.5t-46.5 -21.5q-47 0 -47 46z" />
<glyph unicode="&#xe5;" horiz-adv-x="731" d="M-20 90q0 236 241.5 443.5t416.5 248.5t259 41q33 1 33 -24q0 -8 -7.5 -26.5t-21.5 -49.5q-57 6 -113 12q-74 0 -138 -9t-173.5 -51t-247 -199t-137.5 -316q0 -33 13.5 -55.5t44.5 -22.5q23 0 37 6t93.5 62.5t180 217t135.5 320.5q25 -18 34 -39.5t9 -54.5 q0 -59 -24.5 -108.5t-73.5 -110.5q29 0 64.5 11t51.5 15q-51 -133 -100 -264q0 -27 27 -26q12 0 38.5 14t49.5 27l18 -27q-53 -39 -127 -69.5t-157 -51.5q0 57 34.5 149.5t81.5 192.5q-82 -104 -232.5 -225t-242.5 -121q-35 0 -51 25.5t-16 64.5zM508 958q0 61 64.5 118 t125.5 57q33 0 47.5 -22.5t14.5 -57.5q0 -51 -65.5 -106.5t-123.5 -55.5q-31 0 -47 18.5t-16 48.5zM563 971q0 -37 41 -37q35 0 66.5 38t31.5 75q0 47 -34 47q-35 0 -70 -43t-35 -80z" />
<glyph unicode="&#xe6;" horiz-adv-x="1126" d="M-23 88q0 268 311.5 501.5t592.5 233.5q45 0 45 -22q0 -18 -5.5 -31.5t-23.5 -46.5q-51 6 -70.5 8t-66.5 2q-160 0 -296 -69.5t-256 -216t-120 -285.5q0 -37 12.5 -59.5t44.5 -22.5q72 0 179.5 121t151.5 197.5t70.5 149.5t43.5 142q47 -31 47 -92q0 -53 -25.5 -110.5 t-68.5 -112.5q43 4 64.5 10t47.5 18q59 115 141.5 204t162 131t141 66.5t104.5 24.5q37 0 61.5 -12t24.5 -47q0 -92 -145.5 -191.5t-241.5 -99.5q-57 0 -69 56l63 -7q80 0 176 49.5t96 120.5q0 29 -16 41.5t-47 12.5q-147 0 -279.5 -207t-132.5 -365q0 -47 21.5 -76.5 t68.5 -29.5q115 0 206 111.5t151 252.5q14 -10 14 -49q0 -113 -173 -257t-288 -144q-53 0 -83.5 41t-30.5 96q0 39 7 77t40 130q-31 -51 -66 -129t-35 -115l2 -8l13 -21l-72 -30q-51 -14 -100 -29q0 31 32.5 113t87.5 194q-78 -94 -218 -201.5t-228 -107.5q-37 0 -51.5 23.5 t-14.5 66.5z" />
<glyph unicode="&#xe7;" horiz-adv-x="577" d="M-63 -352q0 39 22.5 67.5t58.5 42.5q-2 -2 -10 -28.5t-8 -32.5q0 -35 11.5 -53.5t45.5 -18.5q53 0 98.5 57.5t45.5 112.5q0 72 -80 72q-27 0 -50.5 -11.5t-52.5 -31.5l76 168q-51 16 -72.5 51t-21.5 92q0 201 180 409t294 243.5t157 39.5t74 4l24 -2l-139 -258h-35 q18 37 30.5 68t12.5 51q0 27 -21.5 32t-54.5 5q-63 0 -138 -38t-166 -211t-91 -288q0 -106 102 -106q115 0 191 82t162 231l8 17q10 -14 10 -31q0 -115 -170 -254t-291 -139l-43 -90q23 6 40.5 10t39.5 4q53 0 76.5 -21.5t23.5 -74.5q0 -84 -89 -165t-175 -81 q-33 0 -54 21.5t-21 54.5z" />
<glyph unicode="&#xe8;" horiz-adv-x="565" d="M2 119q0 184 124 367.5t231.5 241.5t169 79.5t106.5 21.5q35 0 55.5 -12t20.5 -45q0 -96 -142.5 -193.5t-247.5 -97.5q-47 0 -63 51l66 -4q80 0 174 50.5t94 123.5q0 27 -16.5 39.5t-45.5 12.5q-152 0 -281.5 -208t-129.5 -374q0 -47 19.5 -73.5t66.5 -26.5 q113 0 209 115.5t149 250.5q14 -20 14 -49q0 -115 -171 -257t-287 -142q-55 0 -85 35.5t-30 93.5zM391 1104l29 86q113 -31 181 -123t91 -217q-55 94 -127.5 157.5t-173.5 96.5z" />
<glyph unicode="&#xe9;" horiz-adv-x="565" d="M2 119q0 184 124 367.5t231.5 241.5t169 79.5t106.5 21.5q35 0 55.5 -12t20.5 -45q0 -96 -142.5 -193.5t-247.5 -97.5q-47 0 -63 51l66 -4q80 0 174 50.5t94 123.5q0 27 -16.5 39.5t-45.5 12.5q-152 0 -281.5 -208t-129.5 -374q0 -47 19.5 -73.5t66.5 -26.5 q113 0 209 115.5t149 250.5q14 -20 14 -49q0 -115 -171 -257t-287 -142q-55 0 -85 35.5t-30 93.5zM438 850q18 127 76.5 218t169.5 122l39 -86q-92 -33 -161.5 -96.5t-123.5 -157.5z" />
<glyph unicode="&#xea;" horiz-adv-x="565" d="M2 119q0 184 124 367.5t231.5 241.5t169 79.5t106.5 21.5q35 0 55.5 -12t20.5 -45q0 -96 -142.5 -193.5t-247.5 -97.5q-47 0 -63 51l66 -4q80 0 174 50.5t94 123.5q0 27 -16.5 39.5t-45.5 12.5q-152 0 -281.5 -208t-129.5 -374q0 -47 19.5 -73.5t66.5 -26.5 q113 0 209 115.5t149 250.5q14 -20 14 -49q0 -115 -171 -257t-287 -142q-55 0 -85 35.5t-30 93.5zM406 903q10 10 46.5 41t70.5 62.5t74 76.5t128 152q0 -88 1 -173t9 -120q-4 0 -48 -37t-46 -41l2 13v55v29q0 35 -5 59t-22 24q-12 0 -77.5 -73.5t-108.5 -73.5z" />
<glyph unicode="&#xeb;" horiz-adv-x="565" d="M2 119q0 184 124 367.5t231.5 241.5t169 79.5t106.5 21.5q35 0 55.5 -12t20.5 -45q0 -96 -142.5 -193.5t-247.5 -97.5q-47 0 -63 51l66 -4q80 0 174 50.5t94 123.5q0 27 -16.5 39.5t-45.5 12.5q-152 0 -281.5 -208t-129.5 -374q0 -47 19.5 -73.5t66.5 -26.5 q113 0 209 115.5t149 250.5q14 -20 14 -49q0 -115 -171 -257t-287 -142q-55 0 -85 35.5t-30 93.5zM397 1004q0 27 18.5 47t47.5 20q47 0 47 -45q0 -23 -20.5 -45.5t-45.5 -22.5q-47 0 -47 46zM604 1004q0 27 18.5 47t47.5 20q47 0 47 -45q0 -25 -21.5 -46.5t-46.5 -21.5 q-45 0 -45 46z" />
<glyph unicode="&#xec;" horiz-adv-x="346" d="M20 -2q16 106 21.5 132t28.5 87q92 205 146 332t54 151q0 31 -26 31q-10 0 -44 -11t-53 -20l-8 33q31 10 71 25.5t50 21.5l154 64v-10q0 -80 -39 -174.5t-129 -290t-90 -232.5q0 -29 34 -28q10 0 33 8t33 12l12 -29q-61 -29 -135 -62.5t-113 -39.5zM303 1104l29 86 q113 -31 182 -122t92 -218q-59 96 -129.5 157.5t-173.5 96.5z" />
<glyph unicode="&#xed;" horiz-adv-x="346" d="M20 -2q16 106 21.5 132t28.5 87q92 205 146 332t54 151q0 31 -26 31q-10 0 -44 -11t-53 -20l-8 33q31 10 71 25.5t50 21.5l154 64v-10q0 -80 -39 -174.5t-129 -290t-90 -232.5q0 -29 34 -28q10 0 33 8t33 12l12 -29q-61 -29 -135 -62.5t-113 -39.5zM295 850 q18 125 78.5 217t169.5 123l39 -86q-92 -33 -162 -96.5t-125 -157.5z" />
<glyph unicode="&#xee;" horiz-adv-x="346" d="M20 -2q16 106 21.5 132t28.5 87q92 205 146 332t54 151q0 31 -26 31q-10 0 -44 -11t-53 -20l-8 33q31 10 71 25.5t50 21.5l154 64v-10q0 -80 -39 -174.5t-129 -290t-90 -232.5q0 -29 34 -28q10 0 33 8t33 12l12 -29q-61 -29 -135 -62.5t-113 -39.5zM223 903q10 10 47 41 t71 62.5t74 76.5t128 152q0 -88 1 -173t9 -120q-6 -2 -49 -37t-45 -41l2 13v55v29q0 35 -5 59t-22 24q-12 0 -77.5 -73.5t-108.5 -73.5z" />
<glyph unicode="&#xef;" horiz-adv-x="346" d="M20 -2q16 106 21.5 132t28.5 87q92 205 146 332t54 151q0 31 -26 31q-10 0 -44 -11t-53 -20l-8 33q31 10 71 25.5t50 21.5l154 64v-10q0 -80 -39 -174.5t-129 -290t-90 -232.5q0 -29 34 -28q10 0 33 8t33 12l12 -29q-61 -29 -135 -62.5t-113 -39.5zM270 1004 q0 27 18.5 47t47.5 20q47 0 47 -45q0 -25 -21.5 -46.5t-46.5 -21.5q-45 0 -45 46zM449 1004q0 27 18 47t47 20q47 0 47 -45q0 -25 -21.5 -46.5t-45.5 -21.5q-45 0 -45 46z" />
<glyph unicode="&#xf1;" horiz-adv-x="759" d="M-14 -2q12 12 125.5 287.5t126 310.5t17.5 56.5t5 35.5q0 35 -31 35q-14 0 -38.5 -8t-34.5 -10l-6 32l106 33q27 8 66.5 24.5t91.5 36.5l2 -16q0 -55 -35 -145t-109 -258q133 152 281.5 283.5t249.5 131.5q47 0 47 -49t-40 -129t-142.5 -280.5t-102.5 -233.5 q0 -29 27 -29q16 0 41.5 12.5t44.5 24.5l16 -26q-63 -45 -132.5 -74t-147.5 -43q0 82 94 284.5t194 411.5q0 27 -22 27q-16 0 -32.5 -10.5t-112 -81t-214 -230t-206.5 -358.5h-9q-10 -6 -49 -20.5t-71 -24.5zM467 922q23 74 48.5 112.5t84.5 38.5q27 0 91.5 -15.5 t90.5 -15.5q29 0 39 9.5t31 40.5l20 -2q-31 -94 -59.5 -120t-77.5 -26q-31 0 -90 16.5t-90 16.5q-27 0 -41 -12.5t-27 -40.5l-2 -6z" />
<glyph unicode="&#xf2;" horiz-adv-x="645" d="M4 143q0 229 234.5 451.5t463.5 222.5q46 0 46 -41q0 -8 -4.5 -22.5t-8.5 -24.5l-90 6q-182 0 -293.5 -90t-160 -206.5t-60.5 -163t-12 -93.5q0 -45 27.5 -77.5t72.5 -32.5q115 0 233.5 172t118.5 295q0 31 -14 52t-43 21q-47 0 -85 -48t-64 -109l-7 30q0 66 77 132.5 t145 66.5q49 0 78.5 -38t29.5 -89q0 -160 -199.5 -357.5t-353.5 -197.5q-55 0 -93 42t-38 99zM391 1104l29 86q113 -31 181 -123t91 -217q-55 94 -127.5 157.5t-173.5 96.5z" />
<glyph unicode="&#xf3;" horiz-adv-x="645" d="M4 143q0 229 234.5 451.5t463.5 222.5q46 0 46 -41q0 -8 -4.5 -22.5t-8.5 -24.5l-90 6q-182 0 -293.5 -90t-160 -206.5t-60.5 -163t-12 -93.5q0 -45 27.5 -77.5t72.5 -32.5q115 0 233.5 172t118.5 295q0 31 -14 52t-43 21q-47 0 -85 -48t-64 -109l-7 30q0 66 77 132.5 t145 66.5q49 0 78.5 -38t29.5 -89q0 -160 -199.5 -357.5t-353.5 -197.5q-55 0 -93 42t-38 99zM518 850q18 125 78.5 217t169.5 123l39 -86q-92 -33 -162 -97.5t-125 -156.5z" />
<glyph unicode="&#xf4;" horiz-adv-x="645" d="M4 143q0 229 234.5 451.5t463.5 222.5q46 0 46 -41q0 -8 -4.5 -22.5t-8.5 -24.5l-90 6q-182 0 -293.5 -90t-160 -206.5t-60.5 -163t-12 -93.5q0 -45 27.5 -77.5t72.5 -32.5q115 0 233.5 172t118.5 295q0 31 -14 52t-43 21q-47 0 -85 -48t-64 -109l-7 30q0 66 77 132.5 t145 66.5q49 0 78.5 -38t29.5 -89q0 -160 -199.5 -357.5t-353.5 -197.5q-55 0 -93 42t-38 99zM446 903q14 16 54.5 49t69 59.5t68.5 71.5t128 152q0 -88 1 -173t9 -120q-4 -2 -49 -37t-47 -41l2 13v55v29q0 33 -5 58t-22 25q-12 0 -77.5 -73.5t-108.5 -73.5z" />
<glyph unicode="&#xf5;" horiz-adv-x="645" d="M4 143q0 229 234.5 451.5t463.5 222.5q46 0 46 -41q0 -8 -4.5 -22.5t-8.5 -24.5l-90 6q-182 0 -293.5 -90t-160 -206.5t-60.5 -163t-12 -93.5q0 -45 27.5 -77.5t72.5 -32.5q115 0 233.5 172t118.5 295q0 31 -14 52t-43 21q-47 0 -85 -48t-64 -109l-7 30q0 66 77 132.5 t145 66.5q49 0 78.5 -38t29.5 -89q0 -160 -199.5 -357.5t-353.5 -197.5q-55 0 -93 42t-38 99zM408 922q20 74 46.5 112.5t84.5 38.5q27 0 91 -15.5t91 -15.5t40 10.5t32 39.5l20 -2q-25 -78 -50.5 -112t-88.5 -34q-29 0 -88.5 16.5t-91.5 16.5q-25 0 -39.5 -13.5 t-26.5 -39.5l-2 -6z" />
<glyph unicode="&#xf6;" horiz-adv-x="645" d="M4 143q0 229 234.5 451.5t463.5 222.5q46 0 46 -41q0 -8 -4.5 -22.5t-8.5 -24.5l-90 6q-182 0 -293.5 -90t-160 -206.5t-60.5 -163t-12 -93.5q0 -45 27.5 -77.5t72.5 -32.5q115 0 233.5 172t118.5 295q0 31 -14 52t-43 21q-47 0 -85 -48t-64 -109l-7 30q0 66 77 132.5 t145 66.5q49 0 78.5 -38t29.5 -89q0 -160 -199.5 -357.5t-353.5 -197.5q-55 0 -93 42t-38 99zM467 1004q0 29 19.5 48t48.5 19q47 0 47 -45q0 -25 -21.5 -46.5t-46.5 -21.5q-47 0 -47 46zM674 1004q0 29 19.5 48t47.5 19q47 0 47 -45q0 -25 -21.5 -46.5t-45.5 -21.5 q-47 0 -47 46z" />
<glyph unicode="&#xf7;" d="M174 551l23 57h675l-22 -57h-676zM381 313q0 29 18.5 49.5t49.5 20.5q45 0 45 -45q0 -27 -20.5 -47.5t-45.5 -20.5q-18 0 -32.5 12.5t-14.5 30.5zM571 829q0 29 19.5 48.5t48.5 19.5q45 0 45 -45q0 -23 -20.5 -45.5t-45.5 -22.5q-47 0 -47 45z" />
<glyph unicode="&#xf8;" horiz-adv-x="645" d="M-25 -147l103 159q-78 43 -78 135q0 139 100.5 290t173 198t175 102.5t128 80t42 47t53.5 77.5h35l-162 -254q139 0 139 -133q0 -141 -132 -288.5t-220 -192.5t-131 -59.5t-72 -14.5q-16 0 -23 2l-94 -149h-37zM115 174q0 -23 22 -68l326 510q-59 -12 -94 -56t-66 -116 l-6 37q0 70 65.5 124t143.5 77l43 70q-154 -59 -241 -144.5t-127 -182.5t-53 -153.5t-13 -97.5zM162 86q8 -4 26.5 -10t26.5 -6q113 0 232.5 171.5t119.5 290.5q0 66 -67 84z" />
<glyph unicode="&#xf9;" horiz-adv-x="710" d="M20 84q0 88 120 331.5t120 276.5q0 37 -35 37q-31 0 -55 -12l-8 31q68 18 111.5 33.5t136.5 49.5q0 -74 -69 -216t-137.5 -281t-68.5 -187q0 -43 37 -43q102 0 234.5 178.5t176.5 252t65.5 126t43.5 117.5q67 19 135 37q-18 -45 -39.5 -88t-61.5 -130t-67.5 -152.5 t-64.5 -159.5q0 -14 -18.5 -57.5t-18.5 -65.5q0 -31 35 -31q18 0 41.5 8t34.5 13l14 -27q-55 -29 -135 -60.5t-129 -50.5q31 172 98 344q-92 -119 -215 -231.5t-215 -112.5q-29 0 -47.5 20.5t-18.5 49.5zM426 1104l29 86q113 -31 181 -123t91 -217q-57 96 -129 157.5 t-172 96.5z" />
<glyph unicode="&#xfa;" horiz-adv-x="710" d="M20 84q0 88 120 331.5t120 276.5q0 37 -35 37q-31 0 -55 -12l-8 31q68 18 111.5 33.5t136.5 49.5q0 -74 -69 -216t-137.5 -281t-68.5 -187q0 -43 37 -43q102 0 234.5 178.5t176.5 252t65.5 126t43.5 117.5q67 19 135 37q-18 -45 -39.5 -88t-61.5 -130t-67.5 -152.5 t-64.5 -159.5q0 -14 -18.5 -57.5t-18.5 -65.5q0 -31 35 -31q18 0 41.5 8t34.5 13l14 -27q-55 -29 -135 -60.5t-129 -50.5q31 172 98 344q-92 -119 -215 -231.5t-215 -112.5q-29 0 -47.5 20.5t-18.5 49.5zM553 850q18 125 78.5 217t169.5 123l37 -86q-90 -33 -161 -97.5 t-124 -156.5z" />
<glyph unicode="&#xfb;" horiz-adv-x="710" d="M20 84q0 88 120 331.5t120 276.5q0 37 -35 37q-31 0 -55 -12l-8 31q68 18 111.5 33.5t136.5 49.5q0 -74 -69 -216t-137.5 -281t-68.5 -187q0 -43 37 -43q102 0 234.5 178.5t176.5 252t65.5 126t43.5 117.5q67 19 135 37q-18 -45 -39.5 -88t-61.5 -130t-67.5 -152.5 t-64.5 -159.5q0 -14 -18.5 -57.5t-18.5 -65.5q0 -31 35 -31q18 0 41.5 8t34.5 13l14 -27q-55 -29 -135 -60.5t-129 -50.5q31 172 98 344q-92 -119 -215 -231.5t-215 -112.5q-29 0 -47.5 20.5t-18.5 49.5zM455 903q14 16 54 49t68.5 59.5t68.5 71.5t128 152q0 -88 1 -173 t9 -120q-4 -2 -49 -37t-47 -41l2 13v55v29q0 33 -5 58t-21 25q-12 0 -78 -73.5t-109 -73.5q-4 0 -22 6z" />
<glyph unicode="&#xfc;" horiz-adv-x="710" d="M20 84q0 88 120 331.5t120 276.5q0 37 -35 37q-31 0 -55 -12l-8 31q68 18 111.5 33.5t136.5 49.5q0 -74 -69 -216t-137.5 -281t-68.5 -187q0 -43 37 -43q102 0 234.5 178.5t176.5 252t65.5 126t43.5 117.5q67 19 135 37q-18 -45 -39.5 -88t-61.5 -130t-67.5 -152.5 t-64.5 -159.5q0 -14 -18.5 -57.5t-18.5 -65.5q0 -31 35 -31q18 0 41.5 8t34.5 13l14 -27q-55 -29 -135 -60.5t-129 -50.5q31 172 98 344q-92 -119 -215 -231.5t-215 -112.5q-29 0 -47.5 20.5t-18.5 49.5zM432 1004q0 27 18.5 47t47.5 20q47 0 47 -45q0 -25 -21.5 -46.5 t-46.5 -21.5q-45 0 -45 46zM639 1004q0 27 18.5 47t47.5 20q47 0 47 -45q0 -25 -21.5 -46.5t-46.5 -21.5q-45 0 -45 46z" />
<glyph unicode="&#xff;" horiz-adv-x="745" d="M-211 -324q0 45 19.5 89.5t76 117t238.5 93t241.5 52t109.5 78t108.5 120t104.5 172t46 188.5q0 35 -12 57.5t-43 22.5q-84 0 -194.5 -124t-203 -274.5t-147.5 -267.5h-35q76 276 99.5 397t23.5 213q0 31 -8 46.5t-37 15.5q-12 0 -55 -17l-8 31l6 2q2 4 16.5 10.5 t26.5 12.5l6 2q70 39 99.5 54t62.5 34q10 -20 13 -42t3 -59q0 -78 -14.5 -153.5t-44.5 -192.5q186 229 309 334t201 105q37 0 47 -34t10 -63q0 -207 -213 -466t-420 -330q-139 -31 -207.5 -46.5t-104.5 -36t-59.5 -55t-23.5 -61.5q0 -66 60.5 -97.5t131.5 -31.5 q47 0 102.5 13.5t90.5 37.5q-10 -61 -66.5 -91t-126.5 -30q-90 0 -159.5 45t-69.5 129zM436 1004q0 27 18.5 47t47.5 20q47 0 47 -45q0 -25 -21.5 -46.5t-46.5 -21.5q-45 0 -45 46zM643 1004q0 27 18.5 47t47.5 20q47 0 47 -45q0 -25 -21.5 -46.5t-46.5 -21.5q-45 0 -45 46z " />
<glyph unicode="&#x152;" horiz-adv-x="3438" d="M188 537q0 319 247 521t466 250t334 57t233 9q47 0 82 -4t117 -16l-90 -246l94 -33l82 60q215 141 399.5 174.5t513.5 33.5l351 3q61 0 124.5 2t127.5 4l-27 -76q2 -6 -18.5 -81t-20.5 -79l-6 -14h-37q6 23 11 47.5t5 42.5q0 35 -20.5 46t-54.5 11h-41h-252 q-20 -76 -45 -172t-41 -121q-61 -158 -175 -248t-292 -145q100 -31 185 -81t175 -108.5t125 -78.5q51 61 77 126.5t26 139.5q0 100 -41 172t-129 109h350l-29 -107h-164q86 -90 86 -211q0 -74 -27.5 -137t-82.5 -129q141 -82 204.5 -111.5t143.5 -29.5q143 0 232 97t89 239 q41 -23 41 -82q0 -78 -71.5 -148.5t-147 -117t-124 -75t-58.5 -28.5q-47 0 -150.5 43t-154.5 70.5t-74.5 42t-30.5 16.5q-119 -84 -287.5 -126t-336.5 -42q-158 0 -301.5 37t-247.5 119q-274 -178 -625 -178q-295 0 -507 136t-212 417zM324 563q0 -266 186 -401t465 -135 q145 0 276 43t242 125q-63 63 -99 147t-36 190q0 154 68.5 276t195.5 228l-61 25q-109 -258 -306.5 -426t-455.5 -168l-111 2q-45 0 -86 -23l6 11q43 88 68.5 111.5t79.5 23.5q20 0 71.5 -2t65.5 -2q248 0 383 117.5t229 369.5q-94 23 -176 23q-207 0 -353.5 -94.5 t-193.5 -286.5q-8 16 -16 34.5t-8 43.5q0 178 192.5 260t397.5 82q43 0 94 -6.5t80 -8.5l43 146q-74 12 -146.5 19t-142.5 7q-322 0 -549 -95t-299 -260t-88 -232.5t-16 -143.5zM1468 569q0 -121 58 -231l45 -74q88 90 138 210t50 261q0 80 -24.5 154t-77.5 123 q-90 -88 -139.5 -200t-49.5 -243zM1608 219q92 -92 219 -132t284 -40q154 0 286 38t255 124q-143 92 -260 158.5t-246 108.5t-264 42l-35 -2q-35 -82 -96 -156.5t-143 -140.5zM1710 1057q90 -47 137 -119t47 -186q0 -74 -14 -131l51 2q35 0 119 -11.5t107 -11.5 q170 0 277.5 93t168.5 237.5t98 318.5h-270q-96 0 -155.5 -2t-221.5 -23.5t-344 -166.5z" />
<glyph unicode="&#x153;" horiz-adv-x="1007" d="M4 143q0 190 153.5 365.5t274.5 226.5t176.5 66.5t93.5 15.5q45 0 46 -41q0 -8 -4.5 -22.5t-8.5 -24.5q-16 4 -36.5 4h-30.5h-23q-180 0 -293.5 -90t-160 -204.5t-59.5 -163t-13 -95.5q0 -45 27.5 -76.5t72.5 -31.5q111 0 231.5 173t120.5 287q0 35 -12 57.5t-45 22.5 q-47 0 -85 -48t-64 -109l-7 30q0 66 77 132.5t145 66.5q35 0 58.5 -19.5t39.5 -52.5q74 80 194.5 148.5t214.5 68.5q35 0 56.5 -12t21.5 -45q0 -94 -144 -192.5t-245 -98.5q-49 0 -65 51l67 -4q78 0 172 50.5t94 123.5q0 27 -16 39.5t-43 12.5q-154 0 -283 -207t-129 -373 q0 -47 19.5 -73.5t64.5 -26.5q111 0 210.5 117.5t148.5 246.5q14 -23 14 -49q0 -111 -172 -255t-285 -144q-53 0 -83.5 36.5t-30.5 90.5l4 61q-88 -76 -169 -126t-159 -50q-55 0 -93 42t-38 99z" />
<glyph unicode="&#x178;" horiz-adv-x="2533" d="M254 731q0 272 177 453.5t448 181.5q289 0 433 -185.5t173 -490.5q18 4 37.5 4h29.5h19q29 0 53.5 -1t99.5 -9q137 207 266.5 358.5t294 254t369.5 102.5q119 0 192.5 -53t73.5 -168q0 -82 -34.5 -156t-145 -195.5t-316.5 -192.5t-466 -71q-41 0 -134 11.5t-118 11.5 q-102 -164 -227 -383q0 -29 -7.5 -81t-7.5 -67q-25 -10 -49 -20t-56 -39t-60.5 -119t-28.5 -166q0 -63 22.5 -96t83.5 -55l-49 -140q-74 31 -101.5 88.5t-27.5 147.5q0 74 33 162t60.5 140t35.5 65.5t19.5 49.5t16.5 114.5t5 152.5l-2 244q-147 -31 -241.5 -137.5 t-94.5 -253.5q0 -84 25.5 -141.5t89.5 -121.5l-25 -2q-74 0 -111.5 62.5t-37.5 142.5q0 178 107.5 314.5t281.5 211.5q-10 111 -17.5 143t-33 138.5t-162.5 233t-326 126.5q-221 0 -358 -139t-137 -358q0 -207 129 -384t325 -224v-19q-236 0 -381 158t-145 397zM1481 285 q10 25 85.5 150.5t94.5 148.5l2 6q-29 2 -60.5 6t-52.5 4h-39l-22 -2l2 -27v-92q0 -37 -1 -66.5t-9 -127.5zM1673 1597q0 29 18.5 49.5t49.5 20.5q45 0 45 -45q0 -27 -20.5 -47.5t-45.5 -20.5q-18 0 -32.5 12.5t-14.5 30.5zM1765 680q76 -10 164 -16.5t176 -6.5 q186 0 346 46.5t243 128t114 143t31 129.5q0 100 -76 156.5t-180 56.5q-170 0 -319.5 -94.5t-265.5 -229.5t-233 -313zM1880 1597q0 29 18.5 49.5t47.5 20.5q47 0 47 -45q0 -27 -20.5 -47.5t-45.5 -20.5q-18 0 -32.5 12.5t-14.5 30.5z" />
<glyph unicode="&#x2000;" horiz-adv-x="915" />
<glyph unicode="&#x2001;" horiz-adv-x="1831" />
<glyph unicode="&#x2002;" horiz-adv-x="915" />
<glyph unicode="&#x2003;" horiz-adv-x="1831" />
<glyph unicode="&#x2004;" horiz-adv-x="610" />
<glyph unicode="&#x2005;" horiz-adv-x="457" />
<glyph unicode="&#x2006;" horiz-adv-x="305" />
<glyph unicode="&#x2007;" horiz-adv-x="305" />
<glyph unicode="&#x2008;" horiz-adv-x="228" />
<glyph unicode="&#x2009;" horiz-adv-x="366" />
<glyph unicode="&#x200a;" horiz-adv-x="101" />
<glyph unicode="&#x2010;" horiz-adv-x="294" d="M-2 332l63 129h138q37 2 53 2h31q18 0 36.5 6t28.5 10l23 10l-11 -20q-14 -31 -45.5 -60.5t-60.5 -27.5q-16 -8 -43 -8q-14 0 -49 4t-53 4q-59 0 -82 -31l-11 -18h-18z" />
<glyph unicode="&#x2011;" horiz-adv-x="294" d="M-2 332l63 129h138q37 2 53 2h31q18 0 36.5 6t28.5 10l23 10l-11 -20q-14 -31 -45.5 -60.5t-60.5 -27.5q-16 -8 -43 -8q-14 0 -49 4t-53 4q-59 0 -82 -31l-11 -18h-18z" />
<glyph unicode="&#x2012;" horiz-adv-x="294" d="M-2 332l63 129h138q37 2 53 2h31q18 0 36.5 6t28.5 10l23 10l-11 -20q-14 -31 -45.5 -60.5t-60.5 -27.5q-16 -8 -43 -8q-14 0 -49 4t-53 4q-59 0 -82 -31l-11 -18h-18z" />
<glyph unicode="&#x2013;" horiz-adv-x="286" d="M-150 20l830 1326l41 -19l-827 -1327z" />
<glyph unicode="&#x2014;" horiz-adv-x="796" d="M-2 332l63 129h654l90 2l45 8l16 8l19 8l2 2h2l-2 -4q-37 -78 -78 -93t-145 -15h-570h-37q-12 -4 -30 -27l-11 -18h-18z" />
<glyph unicode="&#x2018;" horiz-adv-x="327" d="M70 1001q0 98 58 200.5t144 172.5q-57 -119 -73.5 -171t-16.5 -101l-108 -131q-4 10 -4 30z" />
<glyph unicode="&#x2019;" horiz-adv-x="327" d="M70 971q37 84 62.5 153.5t25.5 116.5l110 133q4 -11 4 -31q0 -100 -57 -199.5t-145 -172.5z" />
<glyph unicode="&#x201a;" horiz-adv-x="327" d="M59 -141q37 84 62.5 153.5t25.5 116.5l111 133l2 -31q0 -100 -57.5 -199.5t-143.5 -172.5z" />
<glyph unicode="&#x201c;" horiz-adv-x="509" d="M72 1001q0 96 58 199.5t142 173.5q-55 -125 -72.5 -176t-17.5 -96l-108 -131zM260 1001q0 96 58.5 199.5t142.5 173.5q-55 -125 -72.5 -176t-17.5 -96l-109 -131z" />
<glyph unicode="&#x201d;" horiz-adv-x="509" d="M72 971q37 84 62.5 153.5t25.5 116.5l110 133l2 -31q0 -98 -57 -199.5t-143 -172.5zM260 971q41 92 64.5 155.5t23.5 114.5l111 133l2 -31q0 -98 -57.5 -199.5t-143.5 -172.5z" />
<glyph unicode="&#x201e;" horiz-adv-x="509" d="M92 -145q51 117 70.5 167t19.5 103l109 133l2 -31q0 -96 -58.5 -199.5t-142.5 -172.5zM281 -145q51 117 70.5 167t19.5 103l108 133l2 -31q0 -96 -58 -199.5t-142 -172.5z" />
<glyph unicode="&#x2022;" horiz-adv-x="1150" d="M303 754q0 123 86 206.5t209 83.5q121 0 206 -84.5t85 -205.5t-86 -207t-207 -86t-207 86t-86 207z" />
<glyph unicode="&#x202f;" horiz-adv-x="366" />
<glyph unicode="&#x2039;" horiz-adv-x="552" d="M90 455l4 4q76 45 133.5 88t149.5 117q20 20 37.5 35.5t22.5 20.5t50 48t57.5 45t62 14.5t59.5 10.5q-39 -55 -237 -195.5t-200 -146.5l-4 -35q0 -23 94.5 -189t104.5 -215l-92 -51l-17 -8q-16 35 -39.5 96.5t-43 103.5t-65.5 122.5t-77 134.5z" />
<glyph unicode="&#x203a;" horiz-adv-x="552" d="M-23 -4q43 66 239 198t200 144t4 35q0 27 -92 190.5t-107 216.5l90 49l17 9l2 -7q14 -18 39.5 -85.5t55.5 -129t56.5 -110.5t73.5 -125l-6 -4l-53 -33q-82 -51 -154 -108.5t-135 -120.5q-33 -27 -53.5 -44.5t-36.5 -41.5l-4 -4l-9 -2q-8 0 -28.5 -5.5t-28.5 -5.5z" />
<glyph unicode="&#x205f;" horiz-adv-x="457" />
<glyph unicode="&#x20ac;" horiz-adv-x="1658" d="M86 481h646l29 88h-646zM86 658h704l29 88h-704zM297 401q0 123 38 242t153.5 303t394 319.5t598.5 135.5q188 0 326.5 -72t138.5 -242q0 -182 -164 -290.5t-356 -108.5q-113 0 -378.5 62.5t-367.5 62.5q-25 0 -49.5 -6t-46.5 -16q27 27 54.5 61.5t53.5 69.5l66 4 q37 0 103.5 -9.5t95 -14.5t108.5 -27.5t162 -44t168 -39t160 -17.5q127 0 224 70.5t97 191.5q0 164 -162 237t-346 73q-379 0 -672.5 -252t-293.5 -627q0 -172 102 -276.5t278 -104.5q199 0 307.5 161t108.5 369l-2 33q31 -16 41 -42.5t10 -69.5q0 -186 -177 -369.5 t-365 -183.5q-180 0 -294 117.5t-114 299.5z" />
<glyph unicode="&#x25fc;" horiz-adv-x="819" d="M0 0v819h819v-819h-819z" />
</font>
</defs>
</svg>
